<svg width="18" height="19" viewBox="0 0 18 19" fill="none" xmlns="http://www.w3.org/2000/svg">
<g clip-path="url(#clip0_111_1184)">
<path d="M7.95611 16.4758C7.80011 16.4758 7.66211 16.4368 7.54211 16.3588C7.42211 16.2808 7.33511 16.1728 7.28111 16.0348C7.22711 15.8968 7.21511 15.7558 7.24511 15.6118C7.27511 15.4678 7.33811 15.3478 7.43411 15.2518L13.0141 9.65383L7.43411 4.07383C7.36211 4.00183 7.30811 3.92083 7.27211 3.83083C7.23611 3.74083 7.21811 3.64783 7.21811 3.55183C7.21811 3.45583 7.23611 3.36583 7.27211 3.28183C7.30811 3.19783 7.36211 3.11983 7.43411 3.04783C7.50611 2.97583 7.58711 2.92183 7.67711 2.88583C7.76711 2.84983 7.85111 2.83183 7.92911 2.83183C8.00711 2.83183 8.10611 2.85583 8.22611 2.90383C8.31011 2.93983 8.38811 2.99383 8.46011 3.06583L14.5441 9.14983C14.6881 9.29383 14.7601 9.46483 14.7601 9.66283C14.7601 9.86083 14.6881 10.0318 14.5441 10.1758L8.46011 16.2598C8.31611 16.4038 8.14811 16.4758 7.95611 16.4758ZM14.0401 10.3738H1.08011C0.876107 10.3738 0.705107 10.3048 0.567107 10.1668C0.429107 10.0288 0.360107 9.86083 0.360107 9.66283C0.360107 9.46483 0.432107 9.29383 0.576107 9.14983C0.720107 9.00583 0.888107 8.93383 1.08011 8.93383H14.0401C14.2321 8.93383 14.4001 9.00583 14.5441 9.14983C14.6881 9.29383 14.7601 9.46483 14.7601 9.66283C14.7601 9.86083 14.6911 10.0288 14.5531 10.1668C14.4151 10.3048 14.2441 10.3738 14.0401 10.3738Z" fill="white"/>
</g>
<defs>
<clipPath id="clip0_111_1184">
<rect width="17.28" height="18" fill="white" transform="matrix(1 0 0 -1 0.360107 18.6899)"/>
</clipPath>
</defs>
</svg>
