<svg width="11" height="7" viewBox="0 0 11 7" fill="none" xmlns="http://www.w3.org/2000/svg">
<path d="M5.6614 6.6001C5.48386 6.6001 5.33764 6.53326 5.22276 6.39958L0.836411 1.72092C0.700643 1.59838 0.643202 1.44243 0.66409 1.25305C0.66409 1.08596 0.72153 0.930004 0.836411 0.785188C0.961735 0.673791 1.11317 0.612523 1.29071 0.601384C1.46825 0.590244 1.60924 0.651512 1.71368 0.785188L5.6614 4.97928L9.60912 0.785188C9.724 0.651512 9.8676 0.590244 10.0399 0.601384C10.2122 0.612523 10.3558 0.679361 10.4707 0.801898C10.5856 0.924434 10.6483 1.0776 10.6587 1.26141C10.6692 1.44521 10.6117 1.59838 10.4864 1.72092L6.10003 6.39958C5.9956 6.53326 5.84939 6.6001 5.6614 6.6001Z" fill="white"/>
</svg>
