<svg width="18" height="19" viewBox="0 0 18 19" fill="none" xmlns="http://www.w3.org/2000/svg">
<g clip-path="url(#clip0_111_1181)">
<path d="M7.16411 16.4041C6.97211 16.4041 6.80411 16.3321 6.66011 16.1881L0.576107 10.1041C0.432107 9.96005 0.360107 9.78905 0.360107 9.59105C0.360107 9.39305 0.432107 9.22205 0.576107 9.07805L6.66011 2.99405C6.73211 2.92205 6.81311 2.86805 6.90311 2.83205C6.99311 2.79605 7.08611 2.77805 7.18211 2.77805C7.27811 2.77805 7.37111 2.79605 7.46111 2.83205C7.55111 2.86805 7.62911 2.91905 7.69511 2.98505C7.76111 3.05105 7.81211 3.13205 7.84811 3.22805C7.88411 3.30005 7.90211 3.39005 7.90211 3.49805C7.90211 3.60605 7.88411 3.69605 7.84811 3.76805C7.80011 3.87605 7.74611 3.95405 7.68611 4.00205L2.10611 9.60005L7.68611 15.1801C7.78211 15.2761 7.84511 15.3961 7.87511 15.5401C7.90511 15.6841 7.89311 15.8251 7.83911 15.9631C7.78511 16.1011 7.69811 16.2091 7.57811 16.2871C7.45811 16.3651 7.32011 16.4041 7.16411 16.4041ZM14.0401 10.3201H1.08011C0.888107 10.3201 0.720107 10.2481 0.576107 10.1041C0.432107 9.96005 0.360107 9.78905 0.360107 9.59105C0.360107 9.39305 0.429107 9.22505 0.567107 9.08705C0.705107 8.94905 0.876107 8.88005 1.08011 8.88005H14.0401C14.2441 8.88005 14.4151 8.94905 14.5531 9.08705C14.6911 9.22505 14.7601 9.39305 14.7601 9.59105C14.7601 9.78905 14.6881 9.96005 14.5441 10.1041C14.4001 10.2481 14.2321 10.3201 14.0401 10.3201Z" fill="#2D71C0"/>
</g>
<defs>
<clipPath id="clip0_111_1181">
<rect width="17.28" height="18" fill="white" transform="matrix(1 0 0 -1 0.360107 18.6899)"/>
</clipPath>
</defs>
</svg>
