<svg width="59" height="59" viewBox="0 0 59 59" fill="none" xmlns="http://www.w3.org/2000/svg">
<path fill-rule="evenodd" clip-rule="evenodd" d="M43.054 26.5105C42.9401 26.5105 42.8267 26.4955 42.7167 26.4662C42.0232 26.2811 41.6067 25.5613 41.7919 24.8678C42.1025 23.7049 42.0941 22.4789 41.7738 21.319C41.463 20.1935 40.8679 19.1652 40.042 18.3392C39.2163 17.5135 38.1882 16.9185 37.063 16.6076C35.903 16.2871 34.6767 16.2787 33.5135 16.5894C32.8202 16.7746 32.1 16.3579 31.915 15.6645C31.73 14.971 32.1464 14.2514 32.84 14.0663C34.4512 13.6364 36.15 13.6474 37.757 14.0911C39.3176 14.5219 40.7434 15.3474 41.8886 16.4926C43.0363 17.6403 43.863 19.0698 44.2932 20.6343C44.7342 22.2386 44.7443 23.9333 44.315 25.5413C44.1626 26.1122 43.645 26.5105 43.054 26.5105Z" fill="#FEFEFE"/>
<path fill-rule="evenodd" clip-rule="evenodd" d="M49.3697 28.2031C49.2559 28.2031 49.1425 28.188 49.0325 28.1586C48.339 27.9735 47.9226 27.2537 48.1078 26.5603C48.7183 24.2739 48.7024 21.8633 48.0732 19.5828C47.4619 17.3671 46.2906 15.3427 44.6648 13.717C43.041 12.093 41.0195 10.9227 38.8068 10.3109C36.5239 9.67965 34.1103 9.66315 31.8212 10.274C31.1277 10.459 30.4081 10.0426 30.223 9.34912C30.0378 8.65557 30.4543 7.93584 31.1479 7.75076C33.8814 7.02134 36.7634 7.0395 39.49 7.79112C42.1423 8.52221 44.5653 9.92436 46.5114 11.8703C48.4586 13.8175 49.8613 16.2423 50.592 18.8963C51.3424 21.6217 51.3602 24.5019 50.6309 27.2339C50.4785 27.8048 49.9607 28.2031 49.3697 28.2031Z" fill="#FEFEFE"/>
<path fill-rule="evenodd" clip-rule="evenodd" d="M55.6848 29.895C55.5709 29.895 55.4574 29.88 55.3474 29.8507C54.6541 29.6657 54.2375 28.9457 54.4225 28.2523C55.2583 25.1208 55.3291 21.8386 54.5871 18.6813C53.7343 15.0523 51.862 11.7835 49.2298 9.15141C46.5978 6.51956 43.3293 4.64758 39.7009 3.79465C36.5433 3.05238 33.2608 3.1228 30.1289 3.95814C29.4355 4.14306 28.7158 3.72677 28.5306 3.03345C28.3454 2.3399 28.7618 1.62005 29.4554 1.43498C33.0217 0.483209 36.7557 0.407802 40.3494 1.26146C44.4325 2.23139 48.1127 4.34121 51.0764 7.30474C54.0256 10.2537 56.127 13.9118 57.102 17.9723C57.9694 21.5848 57.8986 25.3373 56.9458 28.9254C56.7939 29.4974 56.2754 29.895 55.6848 29.895Z" fill="#FEFEFE"/>
<path fill-rule="evenodd" clip-rule="evenodd" d="M8.42238 2.05192L18.6674 12.2969L20.1203 10.8439C20.9215 10.0425 20.9215 8.73908 20.1204 7.93789L12.7814 0.59892C12.3955 0.212865 11.8794 0.000488378 11.3284 0.000488378C10.7772 0.0003223 10.2613 0.212976 9.8754 0.598977L8.42238 2.05192Z" fill="#FEFEFE"/>
<path opacity="0.5" fill-rule="evenodd" clip-rule="evenodd" d="M1.25231 9.22225C-0.903574 11.3781 -0.260579 15.8867 3.06277 21.9172C6.18759 27.5873 11.4177 34.2194 17.7897 40.5917C24.1619 46.9637 30.794 52.1941 36.4642 55.3195C42.4951 58.6425 47.0034 59.2857 49.1594 57.1303L55.1925 51.0957L44.904 40.8064C43.3636 41.9987 41.5607 42.5208 39.6274 42.5209C34.5359 42.5212 28.5348 38.9023 24.007 34.3747C17.7603 28.1277 13.243 19.0743 17.5754 13.4778L7.2861 3.18848L1.25231 9.22225Z" fill="#FEFEFE"/>
<path fill-rule="evenodd" clip-rule="evenodd" d="M46.0845 39.714L56.3293 49.9593L57.7831 48.5058C58.5838 47.7048 58.5838 46.4012 57.783 45.6L50.4435 38.2609C50.0577 37.875 49.5417 37.6626 48.9907 37.6626C48.4396 37.6626 47.9235 37.8751 47.5375 38.261L46.0845 39.714Z" fill="#FEFEFE"/>
</svg>
