<svg width="64" height="65" viewBox="0 0 64 65" fill="none" xmlns="http://www.w3.org/2000/svg">
<path opacity="0.5" d="M5.33325 21.667V32.5003C5.33325 40.1606 5.33325 43.9908 7.6764 46.3706C8.94666 47.6607 10.6366 48.2514 13.1196 48.5219C13.317 48.2513 13.5038 48.0382 13.637 47.8893C13.9468 47.5433 14.3396 47.15 14.7204 46.7687L18.7016 42.7816L20.1718 41.269C21.1381 35.5205 26.0655 31.1462 32.0001 31.1462C37.9346 31.1462 42.8621 35.5205 43.8284 41.269L45.2986 42.7816L49.2799 46.7689C49.6607 47.1502 50.0534 47.5434 50.3631 47.8893C50.4964 48.0382 50.6832 48.2513 50.8805 48.5218C53.3633 48.2514 55.0532 47.6606 56.3234 46.3706C58.6666 43.9908 58.6666 40.1606 58.6666 32.5003V21.667C58.6666 14.0067 58.6666 10.1765 56.3234 7.79675C53.9803 5.41699 50.2091 5.41699 42.6666 5.41699H21.3333C13.7908 5.41699 10.0195 5.41699 7.6764 7.79675C5.33325 10.1765 5.33325 14.0067 5.33325 21.667Z" fill="white"/>
<path d="M18.6667 23.6984C17.5622 23.6984 16.6667 24.6078 16.6667 25.7297C16.6667 26.8515 17.5622 27.7609 18.6667 27.7609H45.3334C46.438 27.7609 47.3334 26.8515 47.3334 25.7297C47.3334 24.6078 46.438 23.6984 45.3334 23.6984H18.6667Z" fill="white"/>
<path d="M22.0001 16.2505C22.0001 15.1287 22.8955 14.2192 24.0001 14.2192H40.0001C41.1046 14.2192 42.0001 15.1287 42.0001 16.2505C42.0001 17.3723 41.1046 18.2817 40.0001 18.2817H24.0001C22.8955 18.2817 22.0001 17.3723 22.0001 16.2505Z" fill="white"/>
<path d="M24.003 43.1103C24.001 43.1846 24 43.2592 24 43.334C24 47.8213 27.5817 51.459 32 51.459C36.4183 51.459 40 47.8213 40 43.334C40 43.2592 39.999 43.1846 39.997 43.1103C39.8804 38.7264 36.3446 35.209 32 35.209C27.8579 35.209 24.451 38.4062 24.0413 42.5033C24.0213 42.7035 24.0084 42.906 24.003 43.1103Z" fill="white"/>
<path d="M20.4685 46.7177L17.5873 49.6033C16.7231 50.4687 16.291 50.9015 16.1415 51.268C15.8008 52.1031 16.0923 53.0294 16.8342 53.4687C17.1598 53.6615 17.747 53.7216 18.9214 53.8417C19.5845 53.9096 19.9161 53.9435 20.1938 54.0464C20.8155 54.2769 21.2991 54.7613 21.5292 55.3839C21.632 55.662 21.6659 55.994 21.7336 56.6581C21.8536 57.8344 21.9136 58.4225 22.106 58.7485C22.5447 59.4915 23.4696 59.7835 24.3035 59.4423C24.6694 59.2925 25.1015 58.8598 25.9657 57.9943L28.8468 55.0964C24.8135 53.9837 21.6245 50.7884 20.4685 46.7177Z" fill="white"/>
<path d="M35.1532 55.0964L38.0343 57.9943C38.8985 58.8598 39.3306 59.2925 39.6965 59.4423C40.5304 59.7835 41.4553 59.4915 41.894 58.7485C42.0864 58.4225 42.1464 57.8344 42.2664 56.6581C42.3341 55.994 42.368 55.662 42.4708 55.3839C42.7009 54.7613 43.1845 54.2769 43.8062 54.0464C44.0839 53.9435 44.4155 53.9096 45.0786 53.8417C46.253 53.7216 46.8402 53.6615 47.1658 53.4687C47.9077 53.0294 48.1992 52.1031 47.8585 51.268C47.709 50.9015 47.2769 50.4687 46.4127 49.6033L43.5315 46.7177C42.3755 50.7884 39.1865 53.9837 35.1532 55.0964Z" fill="white"/>
</svg>
