<svg width="64" height="62" viewBox="0 0 64 62" fill="none" xmlns="http://www.w3.org/2000/svg">
<path fill-rule="evenodd" clip-rule="evenodd" d="M30.8277 6.36337C30.3411 7.20663 30.9495 8.26138 31.9234 8.26132C32.8974 8.26121 33.5058 7.20685 33.0189 6.36332L31.9234 4.46582L30.8277 6.36337Z" fill="white"/>
<path fill-rule="evenodd" clip-rule="evenodd" d="M31.9236 9.79313C29.7692 9.79313 28.4246 7.46224 29.5009 5.59747L31.2601 2.55039C31.5543 2.04071 32.2927 2.04076 32.5869 2.55039L34.3461 5.59709C35.4226 7.46237 34.0773 9.79324 31.9236 9.79313ZM31.0984 11.9616C31.6452 11.969 32.1992 11.9691 32.7463 11.9616C37.9806 11.8955 42.7722 13.0274 45.8016 14.1512V11.2298C45.8016 5.03807 40.7641 0.000488281 34.572 0.000488281H29.2751C23.0829 0.000488281 18.0454 5.03802 18.0454 11.2301V14.1508C21.0753 13.0271 25.8653 11.8959 31.0984 11.9616Z" fill="white" fill-opacity="0.5"/>
<path fill-rule="evenodd" clip-rule="evenodd" d="M31.0782 13.4935C25.8849 13.4285 21.194 14.5715 18.3591 15.6619H44.66H45.4863C42.6514 14.5714 37.9566 13.427 32.7664 13.4935C32.2062 13.501 31.6378 13.5012 31.0782 13.4935Z" fill="white"/>
<path fill-rule="evenodd" clip-rule="evenodd" d="M43.9408 17.1943H19.9062V20.3628C19.9062 26.2563 23.5995 31.6436 29.0967 33.7681C30.921 34.4725 32.9277 34.4727 34.7469 33.7683L34.7742 33.7583C40.2583 31.6267 43.9407 26.2465 43.9407 20.3615L43.9408 17.1943Z" fill="white"/>
<path fill-rule="evenodd" clip-rule="evenodd" d="M38.8017 33.3146C37.7268 34.0803 36.5533 34.7131 35.3011 35.1971C34.1771 35.6188 33.1058 35.8287 31.9239 35.8287C30.7794 35.8287 29.6348 35.6183 28.5443 35.1972C27.2913 34.7129 26.1173 34.0797 25.042 33.3135V36.0049L31.9217 40.5966L38.8017 36.0037V33.3146Z" fill="white"/>
<path fill-rule="evenodd" clip-rule="evenodd" d="M51.6423 54.5773C51.6423 56.0646 50.4332 57.2743 48.947 57.2742C47.4599 57.2742 46.2501 56.0646 46.2501 54.5774V53.7349H17.5938V54.5773C17.5938 56.0646 16.384 57.2743 14.8968 57.2742C13.4106 57.2742 12.2014 56.0646 12.2014 54.5774V53.7334H11.0017C10.1381 53.7334 9.43555 54.436 9.43555 55.2995V61.4847H54.4069V55.3009C54.4069 54.4375 53.7042 53.735 52.8407 53.735L51.6423 53.7349L51.6423 54.5773Z" fill="white" fill-opacity="0.5"/>
<path fill-rule="evenodd" clip-rule="evenodd" d="M52.8407 52.2028C54.5491 52.2028 55.9389 53.5927 55.9389 55.3012L55.9389 61.4848H62.7794C63.3664 61.4848 63.8438 61.0073 63.8438 60.4204V54.1396C63.8438 49.0781 60.6313 44.5584 55.85 42.8933L51.6423 41.4287V52.2029L52.8407 52.2028Z" fill="white"/>
<path fill-rule="evenodd" clip-rule="evenodd" d="M50.1102 54.577V40.8948L47.7821 40.0845V52.9684L47.782 54.5768C47.782 55.2191 48.3045 55.7418 48.9469 55.7418C49.5882 55.7415 50.1102 55.2192 50.1102 54.577Z" fill="white" fill-opacity="0.5"/>
<path fill-rule="evenodd" clip-rule="evenodd" d="M37.9201 43.8443L45.2586 39.2074L39.6746 37.2637L33.3018 41.518L36.7655 43.8298C37.1135 44.0626 37.5668 44.0681 37.9201 43.8443Z" fill="white"/>
<path fill-rule="evenodd" clip-rule="evenodd" d="M27.0765 43.8314L30.542 41.5178L24.1679 37.2632L18.5823 39.208L25.9214 43.845C26.2756 44.0694 26.7287 44.0639 27.0765 43.8314Z" fill="white"/>
<path fill-rule="evenodd" clip-rule="evenodd" d="M16.0617 54.5772V40.085L13.7336 40.8952V54.577C13.7336 55.2193 14.2556 55.742 14.8969 55.742C15.5392 55.7417 16.0617 55.2195 16.0617 54.5772Z" fill="white" fill-opacity="0.5"/>
<path fill-rule="evenodd" clip-rule="evenodd" d="M12.2014 52.2013V41.4287L7.99382 42.893C3.21257 44.5581 0 49.078 0 54.1396V60.4202C0 61.007 0.477627 61.4847 1.06454 61.4847H7.90341V55.2994C7.90341 53.591 9.29327 52.2014 11.0017 52.2014L12.2014 52.2013Z" fill="white"/>
<path fill-rule="evenodd" clip-rule="evenodd" d="M17.5938 40.3955V52.2025L31.1557 52.2025V42.9502L27.9274 45.1053C27.0753 45.6745 25.9675 45.6872 25.1022 45.1398L17.5938 40.3955Z" fill="white"/>
<path fill-rule="evenodd" clip-rule="evenodd" d="M32.688 42.9504V52.2027L46.2501 52.2027V40.3936L38.7395 45.1389C37.8744 45.6862 36.7665 45.673 35.9145 45.104L32.688 42.9504Z" fill="white"/>
</svg>
