<svg width="52" height="58" viewBox="0 0 52 58" fill="none" xmlns="http://www.w3.org/2000/svg">
<path fill-rule="evenodd" clip-rule="evenodd" d="M25.9393 47.2905C25.0881 48.5399 24.5395 49.6874 24.3038 50.7115C24.0105 51.9862 24.2449 53.0103 24.9467 53.521C25.4869 53.9129 26.2365 53.946 26.8123 53.6005C27.5074 53.1848 27.817 52.2992 27.6621 51.1714C27.5086 50.0578 26.9178 48.7299 25.9393 47.2905Z" fill="#FEFEFE"/>
<path fill-rule="evenodd" clip-rule="evenodd" d="M24.4532 39.3159C22.9332 40.9857 22.9316 42.8242 22.9303 45.3686C22.9292 45.871 22.9289 46.3905 22.9166 46.9366C22.9097 47.2097 22.7631 47.4604 22.5273 47.5991C22.2916 47.7377 22.0009 47.7446 21.7596 47.6171C20.9195 47.1742 20.2093 46.3799 19.6694 45.6075C19.4239 48.809 20.4094 51.3635 22.4971 52.7878C22.5837 52.8469 22.6715 52.9035 22.7605 52.9576C22.5475 52.2007 22.544 51.3167 22.7644 50.3571C23.1043 48.8791 23.9624 47.2329 25.3126 45.4633C25.4622 45.2677 25.6937 45.1528 25.9406 45.1528C26.1861 45.1528 26.4189 45.2677 26.5669 45.4633C28.1079 47.4811 29.0014 49.3288 29.2262 50.9556C29.3266 51.6858 29.2882 52.3611 29.1213 52.9563C29.2094 52.9026 29.2966 52.8465 29.3825 52.7878C31.4715 51.3635 32.4571 48.8091 32.2117 45.6076C31.6717 46.3797 30.9616 47.1743 30.1199 47.6171C29.8788 47.7443 29.5881 47.7376 29.3523 47.5991C29.1167 47.4603 28.9698 47.2098 28.963 46.9366C28.9508 46.3905 28.9507 45.8711 28.9507 45.3688C28.948 42.824 28.9479 40.9857 27.4264 39.3159C26.9482 38.7905 26.3928 38.1226 25.9405 37.4185C25.4881 38.1225 24.9316 38.7906 24.4532 39.3159Z" fill="#FEFEFE"/>
<path fill-rule="evenodd" clip-rule="evenodd" d="M25.9406 32.8813C19.1869 32.8813 13.6914 38.3761 13.6914 45.1299C13.6914 51.8837 19.1868 57.3782 25.9405 57.3782C32.6945 57.3781 38.1883 51.8838 38.1883 45.1299C38.1884 38.3761 32.6943 32.8814 25.9406 32.8813ZM21.6075 54.0925C18.496 51.9705 17.3527 47.9503 18.4698 43.063C18.5453 42.7297 18.8277 42.4833 19.1676 42.4525C19.5091 42.4222 19.8296 42.6132 19.964 42.9273C20.1642 43.3903 20.6836 44.3964 21.3512 45.2088C21.3541 42.5963 21.3923 40.332 23.2854 38.2526C24.2847 37.1558 24.9755 36.1199 25.1825 35.4107C25.28 35.0735 25.5896 34.8415 25.9406 34.8415C26.2916 34.8415 26.5999 35.0735 26.6986 35.4107C26.9041 36.1199 27.595 37.1558 28.5943 38.2527C30.4874 40.3318 30.5271 42.5965 30.5298 45.2088C31.1961 44.3961 31.7156 43.3899 31.9157 42.927C32.0514 42.6133 32.3721 42.4222 32.7121 42.4528C33.0535 42.4838 33.3344 42.7299 33.4112 43.063C34.5283 47.9502 33.3838 51.9705 30.2722 54.0925C28.9767 54.9766 27.458 55.418 25.9406 55.4179C24.422 55.4179 22.9029 54.9766 21.6075 54.0925Z" fill="#FEFEFE"/>
<path fill-rule="evenodd" clip-rule="evenodd" d="M12.703 25.9398C12.7031 26.3758 12.3494 26.7293 11.9136 26.7291H5.53784C5.65466 29.8331 6.45899 32.8031 7.8637 35.4646L10.2891 34.0645C10.6663 33.8461 11.1486 33.9758 11.3679 34.3535C11.586 34.731 11.4556 35.214 11.0787 35.432L8.65485 36.8312C9.72631 38.5252 11.0564 40.0695 12.6197 41.4125C14.2474 35.5875 19.6024 31.3022 25.9405 31.3022C32.2779 31.3022 37.633 35.588 39.2603 41.4134C40.8241 40.07 42.1543 38.5254 43.2259 36.8311L40.8026 35.4319C40.4241 35.2139 40.2951 34.7311 40.5131 34.3535C40.7313 33.9758 41.2136 33.8461 41.5919 34.0645L44.0169 35.4643C45.4212 32.8029 46.2251 29.833 46.3418 26.7291H39.9677C39.5319 26.7291 39.178 26.3759 39.178 25.9398C39.1781 25.5038 39.5316 25.1503 39.9676 25.1503L46.3401 25.1501C46.22 22.0097 45.3873 19.049 43.9993 16.4253L41.5921 17.8151C41.4672 17.887 41.3315 17.9211 41.1973 17.921C40.9244 17.921 40.6584 17.7795 40.5131 17.5262C40.2952 17.1484 40.424 16.6657 40.8023 16.4477L43.2071 15.0594C41.5799 12.4862 39.3939 10.3002 36.821 8.67273L35.4317 11.0779C35.2864 11.3313 35.0205 11.4729 34.748 11.4728C34.6135 11.4728 34.4777 11.4388 34.3543 11.367C33.976 11.1489 33.8471 10.6661 34.065 10.2884L35.4549 7.88052C32.8313 6.49249 29.8706 5.65964 26.7301 5.53955L26.7302 11.9126C26.7302 12.3486 26.3764 12.7021 25.9406 12.7021C25.5048 12.7021 25.151 12.3487 25.151 11.9126L25.1511 5.53955C22.0104 5.65964 19.0493 6.49259 16.4254 7.88085L17.8162 10.2884C18.0339 10.666 17.9037 11.1489 17.5268 11.367C17.4023 11.4388 17.2663 11.4729 17.1321 11.4728C16.8594 11.4728 16.5946 11.3313 16.448 11.078L15.0598 8.67294C12.4867 10.3 10.3006 12.486 8.67319 15.0589L11.0787 16.4475C11.4559 16.6656 11.5859 17.1486 11.3679 17.5262C11.2215 17.7795 10.9553 17.9211 10.6827 17.921C10.5498 17.921 10.4125 17.887 10.2892 17.8152L7.88104 16.4248C6.49273 19.0486 5.65971 22.0096 5.53963 25.1503L11.9136 25.1501C12.3494 25.1501 12.703 25.5038 12.703 25.9398ZM32.9246 26.7291H25.9407C25.6581 26.7291 25.3977 26.5789 25.2566 26.3346L18.681 14.9466C18.4633 14.5691 18.5932 14.0862 18.9702 13.8682C19.3488 13.65 19.831 13.7795 20.049 14.1573L26.3959 25.1501H32.9246C33.3608 25.1501 33.7141 25.5038 33.7141 25.9398C33.7141 26.3758 33.3605 26.7293 32.9246 26.7291Z" fill="#FEFEFE" fill-opacity="0.6"/>
<path fill-rule="evenodd" clip-rule="evenodd" d="M0.000112318 25.9399C0.000167724 35.0683 4.71765 43.3907 12.4311 48.0899C12.2223 47.136 12.1122 46.1455 12.1122 45.1299C12.1122 44.4604 12.16 43.802 12.2524 43.1576C6.96576 38.9551 3.94381 32.7071 3.94381 25.9399C3.94386 21.9709 5.00138 18.2447 6.84849 15.0268C6.86084 14.998 6.8749 14.9696 6.8909 14.9419C6.90679 14.9144 6.92406 14.8883 6.94255 14.8635C8.85611 11.5951 11.5888 8.86167 14.8569 6.94723C14.8834 6.92691 14.9117 6.90803 14.9415 6.89081C14.9676 6.87575 14.9942 6.86241 15.0212 6.85067C18.2406 5.00194 21.9693 3.94393 25.9404 3.94393L25.9616 3.94421C29.9224 3.94798 33.6406 5.00466 36.8525 6.84806C36.8815 6.86047 36.9101 6.87469 36.9381 6.89081C36.9657 6.90681 36.992 6.92425 37.017 6.9429C40.2868 8.85718 43.0209 11.5913 44.9354 14.8613C44.9545 14.8868 44.9723 14.9136 44.9886 14.9419C45.0026 14.966 45.015 14.9905 45.0262 15.0155C46.8767 18.2359 47.9357 21.9665 47.9357 25.9399C47.936 32.707 44.9139 38.9552 39.6272 43.1576C39.7196 43.802 39.7674 44.4604 39.7674 45.1299C39.7674 46.1455 39.6573 47.136 39.4485 48.0899C47.1621 43.3907 51.8794 35.0684 51.8794 25.9399C51.8795 11.6368 40.243 0.000488282 25.9404 0.000488282C11.6366 0.00037761 0.000112318 11.6368 0.000112318 25.9399Z" fill="#FEFEFE"/>
</svg>
