<svg width="64" height="64" viewBox="0 0 64 64" fill="none" xmlns="http://www.w3.org/2000/svg">
<g clip-path="url(#clip0_298_3128)">
<path d="M26.3782 48.278C28.4208 46.3738 28.7354 43.3913 27.0807 41.6163C25.4261 39.8413 22.4289 39.946 20.3863 41.8501C18.3436 43.7543 18.0291 46.7368 19.6837 48.5118C21.3383 50.2868 24.3356 50.1821 26.3782 48.278Z" fill="white"/>
<path d="M53.4055 48.2799C55.4482 46.3758 55.7627 43.3933 54.1081 41.6183C52.4534 39.8433 49.4562 39.948 47.4136 41.8521C45.371 43.7562 45.0564 46.7387 46.7111 48.5137C48.3657 50.2887 51.3629 50.184 53.4055 48.2799Z" fill="white"/>
<path d="M4.94502 24.9737C4.94502 23.7949 3.98943 22.8394 2.81064 22.8394C1.63186 22.8394 0.67627 23.7949 0.67627 24.9737C0.67627 26.1525 1.63186 27.1081 2.81064 27.1081C3.98943 27.1081 4.94502 26.1525 4.94502 24.9737Z" fill="white"/>
<path d="M43.31 44.6182C44.0687 40.8682 47.6112 37.8882 51.4187 37.8882C55.085 37.8882 57.7275 40.652 57.655 44.2057C61.62 44.3095 62.7237 39.0882 62.7237 39.0882C63.0575 37.6282 63.5562 34.782 63.9737 31.9882C64.1106 31.1257 64.0054 30.2421 63.67 29.4357C62.6335 27.0162 61.3809 24.6951 59.9275 22.5007C58.5525 20.4495 56.2462 19.2345 53.6137 19.1907C52.0437 19.1657 50.5025 19.1507 49.3387 19.1507L49.3287 19.1407C49.1787 16.6307 47.3487 14.7082 44.78 14.4782C43.1087 14.3295 36.4887 14.2207 33.3112 14.2207C32.0487 14.2207 30.2375 14.2382 28.405 14.2682V14.2607H28.39H6.35747C6.07705 14.2605 5.79935 14.3156 5.54025 14.4229C5.28114 14.5301 5.04572 14.6874 4.84743 14.8857C4.64915 15.0839 4.49189 15.3194 4.38465 15.5785C4.27742 15.8376 4.22231 16.1153 4.22247 16.3957V16.4057C4.22247 16.9693 4.44635 17.5098 4.84487 17.9083C5.24338 18.3068 5.78389 18.5307 6.34747 18.5307H10.7887C11.3235 18.5701 11.8236 18.8103 12.1887 19.203C12.5539 19.5957 12.757 20.112 12.7575 20.6482V20.6595C12.7583 20.9401 12.7038 21.2182 12.597 21.4778C12.4902 21.7374 12.3333 21.9734 12.1352 22.1723C11.9372 22.3712 11.7018 22.529 11.4427 22.6369C11.1835 22.7447 10.9057 22.8004 10.625 22.8007H8.34747C7.78156 22.8007 7.23884 23.0255 6.83868 23.4257C6.43853 23.8258 6.21372 24.3685 6.21372 24.9345C6.21356 25.2148 6.26863 25.4924 6.37578 25.7514C6.48294 26.0104 6.64009 26.2458 6.83824 26.4441C7.03639 26.6423 7.27167 26.7996 7.53063 26.9069C7.78959 27.0142 8.06716 27.0695 8.34747 27.0695H10.625C11.1912 27.0695 11.7343 27.2944 12.1346 27.6948C12.535 28.0952 12.76 28.6382 12.76 29.2045C12.76 29.7707 12.535 30.3137 12.1346 30.7141C11.7343 31.1145 11.1912 31.3395 10.625 31.3395H2.10497C1.53895 31.3395 0.996094 31.5642 0.595739 31.9643C0.195385 32.3645 -0.0296979 32.9072 -0.0300293 33.4732C-0.0300293 34.0394 0.194908 34.5825 0.595298 34.9829C0.995688 35.3833 1.53873 35.6082 2.10497 35.6082H10.625C11.1912 35.6082 11.7343 35.8331 12.1346 36.2335C12.535 36.6339 12.76 37.177 12.76 37.7432C12.7593 38.309 12.5341 38.8514 12.1338 39.2513C11.7334 39.6511 11.1908 39.8757 10.625 39.8757H7.98997C7.42406 39.8757 6.88134 40.1005 6.48118 40.5007C6.08103 40.9008 5.85622 41.4436 5.85622 42.0095C5.85622 42.5755 6.08099 43.1183 6.48111 43.5187C6.88123 43.919 7.42395 44.1441 7.98997 44.1445L16.3975 44.1382L17.0962 42.397C18.5275 39.757 21.375 37.887 24.39 37.887C28.1987 37.887 30.9037 40.8695 30.6062 44.622H43.3087M22.1337 23.7945H19.2687C19.266 23.7947 19.2635 23.7958 19.2614 23.7976C19.2594 23.7994 19.258 23.8018 19.2575 23.8045L18.9937 25.6795C18.9933 25.681 18.9933 25.6825 18.9936 25.6841C18.9939 25.6856 18.9946 25.687 18.9956 25.6882C18.9966 25.6894 18.9978 25.6904 18.9992 25.691C19.0006 25.6917 19.0022 25.692 19.0037 25.692H21.1362C21.2409 25.689 21.3449 25.7094 21.4407 25.7517C21.5365 25.7941 21.6216 25.8572 21.6899 25.9366C21.7581 26.016 21.8078 26.1097 21.8353 26.2107C21.8628 26.3118 21.8674 26.4177 21.8487 26.5207C21.8122 26.7472 21.6978 26.9539 21.5253 27.1051C21.3529 27.2564 21.133 27.3428 20.9037 27.3495H18.7687C18.7661 27.3494 18.7636 27.3502 18.7615 27.3518C18.7595 27.3534 18.758 27.3557 18.7575 27.3582L18.375 30.082C18.3384 30.3084 18.2241 30.5151 18.0516 30.6664C17.8791 30.8176 17.6593 30.904 17.43 30.9107C17.3253 30.9137 17.2213 30.8933 17.1256 30.851C17.0299 30.8086 16.9448 30.7454 16.8766 30.666C16.8085 30.5866 16.7589 30.4929 16.7316 30.3919C16.7043 30.2908 16.6999 30.1849 16.7187 30.082L17.7112 23.017C17.7505 22.7778 17.8718 22.5597 18.0542 22.4C18.2367 22.2404 18.4689 22.1492 18.7112 22.142H22.365C22.4696 22.1389 22.5736 22.1593 22.6693 22.2017C22.7651 22.244 22.8501 22.3072 22.9183 22.3867C22.9865 22.4661 23.036 22.5598 23.0634 22.6608C23.0907 22.7619 23.0951 22.8677 23.0762 22.9707C23.0392 23.1961 22.9249 23.4015 22.7529 23.5518C22.5809 23.7021 22.362 23.7879 22.1337 23.7945ZM29.7912 22.7045C30.0889 22.9685 30.2983 23.3176 30.3912 23.7045C30.4951 24.1427 30.5121 24.5971 30.4412 25.042C30.3543 25.7341 30.0711 26.3869 29.625 26.9232C29.3526 27.2453 29.0065 27.497 28.6162 27.657C28.6145 27.6588 28.6135 27.6613 28.6135 27.6638C28.6135 27.6664 28.6145 27.6688 28.6162 27.6707L29.3262 29.7195C29.5175 30.2695 29.0262 30.9107 28.415 30.9107H28.375C28.2267 30.9151 28.0808 30.8721 27.9586 30.7881C27.8363 30.704 27.744 30.5832 27.695 30.4432L26.8362 27.9432C26.835 27.9413 26.8333 27.9398 26.8314 27.9387C26.8294 27.9376 26.8272 27.937 26.825 27.937H25C24.9974 27.9371 24.995 27.938 24.993 27.9396C24.991 27.9411 24.9895 27.9433 24.9887 27.9457L24.6887 30.0807C24.6522 30.3072 24.5378 30.5139 24.3653 30.6651C24.1929 30.8164 23.973 30.9028 23.7437 30.9095C23.6391 30.9125 23.5351 30.8921 23.4394 30.8497C23.3436 30.8074 23.2586 30.7442 23.1904 30.6648C23.1222 30.5853 23.0727 30.4917 23.0453 30.3906C23.018 30.2896 23.0136 30.1837 23.0325 30.0807L24.025 23.0157C24.0643 22.7765 24.1856 22.5584 24.368 22.3988C24.5504 22.2392 24.7827 22.1479 25.025 22.1407H27.85C27.85 22.1407 29.09 22.102 29.7912 22.7045ZM37.5662 22.912C37.5322 23.1235 37.4255 23.3166 37.2644 23.4578C37.1033 23.5991 36.8979 23.6797 36.6837 23.6857H33.3975C33.3949 23.6858 33.3925 23.6868 33.3905 23.6883C33.3885 23.6899 33.387 23.692 33.3862 23.6945L33.125 25.5495C33.1246 25.551 33.1245 25.5525 33.1249 25.5541C33.1252 25.5556 33.1259 25.557 33.1268 25.5582C33.1278 25.5594 33.1291 25.5604 33.1305 25.561C33.1319 25.5617 33.1334 25.562 33.135 25.562H35.6875C35.7852 25.5591 35.8824 25.5781 35.9719 25.6175C36.0613 25.657 36.1408 25.716 36.2046 25.7902C36.2683 25.8643 36.3147 25.9518 36.3403 26.0462C36.3659 26.1406 36.37 26.2395 36.3525 26.3357C36.3185 26.5473 36.2117 26.7403 36.0506 26.8816C35.8895 27.0228 35.6842 27.1034 35.47 27.1095H32.9162C32.9137 27.1096 32.9112 27.1105 32.9092 27.1121C32.9072 27.1136 32.9057 27.1158 32.905 27.1182L32.5912 29.3507C32.5912 29.3538 32.5924 29.3568 32.5944 29.3591C32.5965 29.3614 32.5994 29.3629 32.6025 29.3632H35.8862C35.984 29.3603 36.0811 29.3793 36.1706 29.4188C36.2601 29.4583 36.3396 29.5173 36.4033 29.5914C36.4671 29.6656 36.5134 29.7531 36.539 29.8475C36.5646 29.9418 36.5688 30.0407 36.5512 30.137C36.5172 30.3485 36.4105 30.5416 36.2494 30.6828C36.0883 30.8241 35.8829 30.9047 35.6687 30.9107H31.5937C31.4838 30.9122 31.3748 30.8896 31.2746 30.8443C31.1744 30.7991 31.0853 30.7324 31.0138 30.6489C30.9422 30.5654 30.8899 30.4672 30.8605 30.3612C30.8311 30.2553 30.8254 30.1441 30.8437 30.0357L31.83 23.0207C31.8693 22.7815 31.9906 22.5634 32.173 22.4038C32.3554 22.2442 32.5877 22.1529 32.83 22.1457H36.9037C37.0005 22.1434 37.0966 22.1626 37.1851 22.2018C37.2736 22.241 37.3524 22.2993 37.4157 22.3726C37.479 22.4458 37.5254 22.5321 37.5514 22.6254C37.5774 22.7187 37.5825 22.8165 37.5662 22.912ZM44.3925 22.912C44.3585 23.1235 44.2517 23.3166 44.0906 23.4578C43.9295 23.5991 43.7242 23.6797 43.51 23.6857H40.2237C40.2212 23.6858 40.2187 23.6868 40.2167 23.6883C40.2147 23.6899 40.2132 23.692 40.2125 23.6945L39.9525 25.5495C39.9521 25.551 39.952 25.5525 39.9524 25.5541C39.9527 25.5556 39.9534 25.557 39.9543 25.5582C39.9553 25.5594 39.9566 25.5604 39.958 25.561C39.9594 25.5617 39.9609 25.562 39.9625 25.562H42.515C42.6127 25.5591 42.7099 25.5781 42.7994 25.6175C42.8888 25.657 42.9683 25.716 43.0321 25.7902C43.0958 25.8643 43.1422 25.9518 43.1678 26.0462C43.1934 26.1406 43.1975 26.2395 43.18 26.3357C43.146 26.5473 43.0392 26.7403 42.8781 26.8816C42.717 27.0228 42.5117 27.1034 42.2975 27.1095H39.7425C39.7399 27.1096 39.7375 27.1105 39.7355 27.1121C39.7335 27.1136 39.732 27.1158 39.7312 27.1182L39.4175 29.3507C39.4175 29.3538 39.4186 29.3568 39.4207 29.3591C39.4228 29.3614 39.4256 29.3629 39.4287 29.3632H42.7125C42.8102 29.3603 42.9074 29.3793 42.9968 29.4188C43.0863 29.4583 43.1658 29.5173 43.2296 29.5914C43.2933 29.6656 43.3397 29.7531 43.3653 29.8475C43.3909 29.9418 43.395 30.0407 43.3775 30.137C43.3435 30.3485 43.2367 30.5416 43.0756 30.6828C42.9145 30.8241 42.7092 30.9047 42.495 30.9107H38.42C38.31 30.9122 38.2011 30.8896 38.1009 30.8443C38.0006 30.7991 37.9116 30.7324 37.84 30.6489C37.7685 30.5654 37.7161 30.4672 37.6867 30.3612C37.6574 30.2553 37.6516 30.1441 37.67 30.0357L38.6562 23.0207C38.6955 22.7815 38.8168 22.5634 38.9992 22.4038C39.1817 22.2442 39.4139 22.1529 39.6562 22.1457H43.73C43.8268 22.1434 43.9229 22.1626 44.0114 22.2018C44.0999 22.241 44.1786 22.2993 44.242 22.3726C44.3053 22.4458 44.3516 22.5321 44.3776 22.6254C44.4037 22.7187 44.4087 22.8165 44.3925 22.912ZM49.1425 22.1107C50.2587 22.1107 51.7037 22.1257 53.1537 22.1495C54.9112 22.1782 56.4487 22.9857 57.3712 24.3632C58.3566 25.8487 59.2423 27.3979 60.0225 29.0007C60.435 29.8407 59.6762 30.9345 58.6825 30.9345H48.0262L49.1425 22.1107Z" fill="white" fill-opacity="0.7"/>
<path d="M27.1813 26.3903H25.2063L25.5813 23.6853H27.555C27.555 23.6853 29.0038 23.5916 28.7663 25.0378C28.7726 25.0378 28.6063 26.3903 27.1813 26.3903Z" fill="white"/>
</g>
<defs>
<clipPath id="clip0_298_3128">
<rect width="64" height="64" fill="white" transform="translate(0 0.000488281)"/>
</clipPath>
</defs>
</svg>
