<svg aria-hidden="true" style="position: absolute; width: 0; height: 0; overflow: hidden;" version="1.1" xmlns="http://www.w3.org/2000/svg" xmlns:xlink="http://www.w3.org/1999/xlink">
<defs>
<symbol id="icon-logo-icon" viewBox="0 0 32 32">
<path d="M14.941 1.359l-14.023 11.163c-1.362 1.084-0.623 3.342 1.094 3.342h1.445v2.097c0 7.077 5.531 12.814 12.353 12.814s12.353-5.737 12.353-12.814v-2.097h1.895c1.717 0 2.456-2.258 1.094-3.342l-14.023-11.163c-0.645-0.514-1.543-0.514-2.188 0zM10.645 19.072c0-3.453 5.166-9.731 5.166-9.731s5.166 6.277 5.166 9.731c0 2.862-2.312 5.18-5.166 5.18s-5.166-2.318-5.166-5.18z"></path>
</symbol>
<symbol id="icon-map-icon" viewBox="0 0 32 32">
<path d="M26.289 27.15c1.902-1.037 3.045-2.367 3.045-3.817 0-1.537-1.284-2.939-3.395-4-2.441-1.227-5.989-2-9.938-2s-7.497 0.773-9.938 2c-2.111 1.061-3.395 2.463-3.395 4s1.284 2.939 3.395 4c2.441 1.227 5.989 2 9.938 2 4.142 0 7.843-0.85 10.289-2.183z"></path>
<path d="M6.667 11.353c0-4.797 4.179-8.686 9.333-8.686s9.333 3.889 9.333 8.686c0 4.76-2.979 10.314-7.627 12.3-1.083 0.463-2.33 0.463-3.414 0-4.648-1.986-7.627-7.54-7.627-12.3zM16 14.667c1.473 0 2.667-1.194 2.667-2.667s-1.194-2.667-2.667-2.667-2.667 1.194-2.667 2.667c0 1.473 1.194 2.667 2.667 2.667z"></path>
</symbol>
<symbol id="icon-phone-icon" viewBox="0 0 32 32">
<path fill="#2d71c0" style="fill: var(--color1, #2d71c0)" d="M21.468 17.812l0.607-0.604c0.839-0.835 2.148-1.006 3.222-0.422l2.547 1.385c1.636 0.889 1.996 3.069 0.718 4.34l-1.894 1.883c-0.482 0.479-1.079 0.829-1.766 0.893-1.59 0.148-4.86 0.068-8.719-2.19l5.284-5.284zM13.588 9.977l0.382-0.38c0.942-0.937 1.031-2.441 0.209-3.539l-1.681-2.246c-1.017-1.359-2.983-1.538-4.149-0.379l-2.093 2.081c-0.578 0.575-0.966 1.32-0.919 2.147 0.086 1.518 0.604 4.292 2.865 7.701l5.385-5.385z"></path>
<path fill="#2d71c0" style="fill: var(--color1, #2d71c0)" opacity="0.6" d="M16.084 15.33c-3.928-3.905-2.505-5.344-2.497-5.353l-5.385 5.385c0.888 1.339 2.046 2.776 3.551 4.273 1.52 1.511 3.014 2.633 4.429 3.461l5.284-5.284c0 0-1.443 1.435-5.383-2.482z"></path>
</symbol>
<symbol id="icon-play-icon" viewBox="0 0 32 32">
<path d="M10.993 5.529c-1.282-0.758-2.895 0.176-2.895 1.676v13.688c0 1.5 1.613 2.434 2.895 1.676l11.579-6.844c1.269-0.75 1.269-2.602 0-3.352l-11.579-6.845z"></path>
</symbol>
<symbol id="icon-price-icon" viewBox="0 0 32 32">
<path d="M24 10.667c0 1.473-1.194 2.667-2.667 2.667s-2.667-1.194-2.667-2.667c0-1.473 1.194-2.667 2.667-2.667s2.667 1.194 2.667 2.667z"></path>
<path d="M15.924 1.667h0.153c3.078-0 5.49-0 7.372 0.253 1.926 0.259 3.446 0.799 4.639 1.993s1.733 2.713 1.992 4.639c0.253 1.882 0.253 4.294 0.253 7.372v0.118c0 2.545 0 4.628-0.138 6.325-0.139 1.705-0.424 3.129-1.061 4.312-0.281 0.522-0.626 0.989-1.047 1.41-1.193 1.193-2.713 1.734-4.639 1.993-1.882 0.253-4.294 0.253-7.372 0.253h-0.153c-3.078 0-5.49 0-7.372-0.253-1.926-0.259-3.446-0.799-4.639-1.993-1.058-1.058-1.604-2.374-1.894-4.007-0.285-1.604-0.338-3.6-0.348-6.079-0.003-0.63-0.003-1.297-0.003-2.001v-0.078c-0-3.078-0-5.49 0.253-7.372 0.259-1.926 0.799-3.446 1.993-4.639s2.713-1.734 4.639-1.993c1.882-0.253 4.294-0.253 7.372-0.253zM8.818 3.902c-1.705 0.229-2.732 0.665-3.492 1.425s-1.195 1.787-1.425 3.492c-0.233 1.733-0.235 4.011-0.235 7.182 0 0.705 0 1.368 0.003 1.993 0.011 2.499 0.067 4.328 0.317 5.737 0.246 1.381 0.663 2.267 1.339 2.943 0.76 0.76 1.787 1.195 3.492 1.425 1.733 0.233 4.011 0.235 7.182 0.235s5.449-0.002 7.182-0.235c1.705-0.229 2.732-0.665 3.492-1.425 0.28-0.28 0.509-0.589 0.7-0.944 0.442-0.821 0.697-1.92 0.828-3.526s0.132-3.609 0.132-6.204c0-3.171-0.002-5.449-0.235-7.182-0.229-1.705-0.665-2.732-1.425-3.492s-1.787-1.195-3.492-1.425c-1.733-0.233-4.011-0.235-7.182-0.235s-5.449 0.002-7.182 0.235z"></path>
<path d="M27.476 25.529l-3.774-3.397c-1.386-1.247-3.45-1.372-4.976-0.299l-0.398 0.279c-1.060 0.745-2.503 0.62-3.419-0.296l-5.72-5.72c-1.142-1.142-2.973-1.203-4.188-0.139l-1.335 1.168c0 0.297 0.001 0.587 0.002 0.869 0.011 2.499 0.067 4.328 0.317 5.737 0.246 1.381 0.663 2.267 1.339 2.943 0.76 0.76 1.787 1.195 3.492 1.425 1.733 0.233 4.011 0.235 7.182 0.235s5.449-0.002 7.182-0.235c1.705-0.229 2.732-0.665 3.492-1.425 0.28-0.28 0.509-0.589 0.7-0.944 0.035-0.065 0.069-0.133 0.102-0.202z"></path>
</symbol>
<symbol id="icon-telegram-icon" viewBox="0 0 32 32">
<path d="M1.812 13.393l26.997-10.409c1.253-0.453 2.347 0.306 1.941 2.2l0.002-0.002-4.597 21.656c-0.341 1.535-1.253 1.909-2.529 1.185l-7-5.159-3.376 3.253c-0.373 0.373-0.688 0.688-1.412 0.688l0.497-7.124 12.973-11.72c0.565-0.497-0.126-0.777-0.87-0.282l-16.032 10.094-6.911-2.156c-1.5-0.476-1.533-1.5 0.317-2.224z"></path>
</symbol>
<symbol id="icon-viber-icon" viewBox="0 0 32 32">
<path d="M18.947 1.263h-5.895c-2.736 0-5.36 1.087-7.294 3.021s-3.021 4.558-3.021 7.294v4.421c-0.001 1.953 0.553 3.866 1.596 5.517s2.534 2.971 4.299 3.808v4.926c0.002 0.096 0.032 0.19 0.086 0.269s0.13 0.141 0.219 0.178c0.089 0.037 0.186 0.047 0.281 0.029s0.182-0.063 0.251-0.13l4.281-4.281h5.198c2.736 0 5.36-1.087 7.294-3.021s3.021-4.558 3.021-7.294v-4.421c0-2.736-1.087-5.36-3.021-7.294s-4.559-3.021-7.294-3.021zM22.808 20.598l-1.474 1.474c-1.57 1.536-5.666-0.217-9.277-3.905s-5.195-7.825-3.684-9.362l1.474-1.474c0.289-0.259 0.664-0.401 1.052-0.397s0.761 0.154 1.044 0.419l2.152 2.211c0.171 0.176 0.294 0.393 0.358 0.63s0.067 0.486 0.008 0.725c-0.059 0.238-0.178 0.458-0.345 0.638s-0.377 0.314-0.611 0.391c-0.346 0.106-0.638 0.341-0.815 0.657s-0.226 0.687-0.136 1.038c0.368 1.636 2.446 3.684 3.994 4.086 0.349 0.083 0.716 0.036 1.033-0.132s0.561-0.446 0.688-0.782c0.082-0.234 0.222-0.443 0.408-0.607s0.411-0.277 0.653-0.329c0.242-0.052 0.494-0.040 0.731 0.033s0.45 0.207 0.621 0.387l2.148 2.211c0.258 0.288 0.399 0.662 0.395 1.049s-0.153 0.758-0.417 1.040zM17.341 8.263c-0.147-0.001-0.293 0.008-0.438 0.026-0.064 0.007-0.129 0.001-0.191-0.017s-0.12-0.048-0.17-0.088c-0.050-0.040-0.092-0.090-0.123-0.147s-0.051-0.119-0.058-0.183c-0.007-0.064-0.001-0.129 0.017-0.191s0.048-0.12 0.088-0.17c0.040-0.050 0.090-0.092 0.147-0.123s0.119-0.051 0.183-0.058c0.181-0.021 0.363-0.031 0.545-0.029 1.304-0.001 2.555 0.516 3.478 1.437s1.443 2.171 1.445 3.474c0.001 0.182-0.009 0.364-0.030 0.545-0.007 0.064-0.027 0.126-0.058 0.183s-0.073 0.106-0.123 0.147c-0.050 0.040-0.108 0.070-0.17 0.088s-0.127 0.024-0.191 0.017c-0.064-0.007-0.126-0.027-0.183-0.058s-0.106-0.073-0.147-0.123-0.070-0.108-0.089-0.17c-0.018-0.062-0.024-0.127-0.017-0.191 0.016-0.146 0.025-0.292 0.026-0.438-0.002-1.044-0.418-2.044-1.157-2.781s-1.741-1.151-2.785-1.15zM20.288 12.194c-0.011 0.123-0.067 0.238-0.158 0.321s-0.21 0.13-0.334 0.13c-0.124 0-0.243-0.046-0.334-0.13s-0.147-0.198-0.158-0.321c0-0.521-0.207-1.020-0.575-1.389s-0.868-0.575-1.389-0.575c-0.068 0.006-0.137-0.002-0.202-0.024s-0.124-0.057-0.175-0.104c-0.050-0.046-0.091-0.102-0.118-0.165s-0.042-0.13-0.042-0.199c0-0.068 0.014-0.136 0.042-0.199s0.068-0.119 0.118-0.165c0.050-0.046 0.11-0.082 0.175-0.104s0.133-0.030 0.202-0.024c0.782 0 1.531 0.311 2.084 0.863s0.863 1.302 0.863 2.084zM24.035 13.79c-0.011 0.067-0.035 0.131-0.072 0.188s-0.085 0.106-0.141 0.144c-0.056 0.038-0.12 0.063-0.187 0.075s-0.135 0.010-0.201-0.006c-0.066-0.016-0.128-0.045-0.182-0.086s-0.099-0.092-0.133-0.151c-0.033-0.059-0.054-0.124-0.061-0.192s-0-0.136 0.020-0.2c0.106-0.445 0.16-0.902 0.158-1.359 0-1.563-0.621-3.063-1.727-4.168s-2.605-1.727-4.168-1.727c-0.151 0-0.306 0-0.457 0-0.064 0.005-0.129-0.003-0.19-0.023s-0.118-0.052-0.167-0.094c-0.099-0.085-0.16-0.206-0.17-0.336s0.032-0.258 0.117-0.357c0.085-0.099 0.206-0.16 0.336-0.17 0.177-0.015 0.354-0.022 0.531-0.022 1.825 0.003 3.575 0.73 4.864 2.022s2.014 3.042 2.014 4.868c0 0.537-0.062 1.072-0.184 1.595z"></path>
</symbol>
</defs>
</svg>
