<svg aria-hidden="true" style="position: absolute; width: 0; height: 0; overflow: hidden;" version="1.1" xmlns="http://www.w3.org/2000/svg" xmlns:xlink="http://www.w3.org/1999/xlink">
<defs>
<symbol id="icon-logo-icon" viewBox="0 0 32 32">
<path d="M14.941 1.359l-14.023 11.163c-1.362 1.084-0.623 3.342 1.094 3.342h1.445v2.097c0 7.077 5.531 12.814 12.353 12.814s12.353-5.737 12.353-12.814v-2.097h1.895c1.717 0 2.456-2.258 1.094-3.342l-14.023-11.163c-0.645-0.514-1.543-0.514-2.188 0zM10.645 19.072c0-3.453 5.166-9.731 5.166-9.731s5.166 6.277 5.166 9.731c0 2.862-2.312 5.18-5.166 5.18s-5.166-2.318-5.166-5.18z"></path>
</symbol>
<symbol id="icon-map-icon" viewBox="0 0 32 32">
<path d="M26.289 27.15c1.902-1.037 3.045-2.367 3.045-3.817 0-1.537-1.284-2.939-3.395-4-2.441-1.227-5.989-2-9.938-2s-7.497 0.773-9.938 2c-2.111 1.061-3.395 2.463-3.395 4s1.284 2.939 3.395 4c2.441 1.227 5.989 2 9.938 2 4.142 0 7.843-0.85 10.289-2.183z"></path>
<path d="M6.667 11.353c0-4.797 4.179-8.686 9.333-8.686s9.333 3.889 9.333 8.686c0 4.76-2.979 10.314-7.627 12.3-1.083 0.463-2.33 0.463-3.414 0-4.648-1.986-7.627-7.54-7.627-12.3zM16 14.667c1.473 0 2.667-1.194 2.667-2.667s-1.194-2.667-2.667-2.667-2.667 1.194-2.667 2.667c0 1.473 1.194 2.667 2.667 2.667z"></path>
</symbol>
<symbol id="icon-phone-icon" viewBox="0 0 32 32">
<path fill="#2d71c0" style="fill: var(--color1, #2d71c0)" d="M21.468 17.812l0.607-0.604c0.839-0.835 2.148-1.006 3.222-0.422l2.547 1.385c1.636 0.889 1.996 3.069 0.718 4.34l-1.894 1.883c-0.482 0.479-1.079 0.829-1.766 0.893-1.59 0.148-4.86 0.068-8.719-2.19l5.284-5.284zM13.588 9.977l0.382-0.38c0.942-0.937 1.031-2.441 0.209-3.539l-1.681-2.246c-1.017-1.359-2.983-1.538-4.149-0.379l-2.093 2.081c-0.578 0.575-0.966 1.32-0.919 2.147 0.086 1.518 0.604 4.292 2.865 7.701l5.385-5.385z"></path>
<path fill="#2d71c0" style="fill: var(--color1, #2d71c0)" opacity="0.6" d="M16.084 15.33c-3.928-3.905-2.505-5.344-2.497-5.353l-5.385 5.385c0.888 1.339 2.046 2.776 3.551 4.273 1.52 1.511 3.014 2.633 4.429 3.461l5.284-5.284c0 0-1.443 1.435-5.383-2.482z"></path>
</symbol>
<symbol id="icon-play-icon" viewBox="0 0 32 32">
<path d="M10.993 5.529c-1.282-0.758-2.895 0.176-2.895 1.676v13.688c0 1.5 1.613 2.434 2.895 1.676l11.579-6.844c1.269-0.75 1.269-2.602 0-3.352l-11.579-6.845z"></path>
</symbol>
<symbol id="icon-price-icon" viewBox="0 0 32 32">
<path d="M24 10.667c0 1.473-1.194 2.667-2.667 2.667s-2.667-1.194-2.667-2.667c0-1.473 1.194-2.667 2.667-2.667s2.667 1.194 2.667 2.667z"></path>
<path d="M15.924 1.667h0.153c3.078-0 5.49-0 7.372 0.253 1.926 0.259 3.446 0.799 4.639 1.993s1.733 2.713 1.992 4.639c0.253 1.882 0.253 4.294 0.253 7.372v0.118c0 2.545 0 4.628-0.138 6.325-0.139 1.705-0.424 3.129-1.061 4.312-0.281 0.522-0.626 0.989-1.047 1.41-1.193 1.193-2.713 1.734-4.639 1.993-1.882 0.253-4.294 0.253-7.372 0.253h-0.153c-3.078 0-5.49 0-7.372-0.253-1.926-0.259-3.446-0.799-4.639-1.993-1.058-1.058-1.604-2.374-1.894-4.007-0.285-1.604-0.338-3.6-0.348-6.079-0.003-0.63-0.003-1.297-0.003-2.001v-0.078c-0-3.078-0-5.49 0.253-7.372 0.259-1.926 0.799-3.446 1.993-4.639s2.713-1.734 4.639-1.993c1.882-0.253 4.294-0.253 7.372-0.253zM8.818 3.902c-1.705 0.229-2.732 0.665-3.492 1.425s-1.195 1.787-1.425 3.492c-0.233 1.733-0.235 4.011-0.235 7.182 0 0.705 0 1.368 0.003 1.993 0.011 2.499 0.067 4.328 0.317 5.737 0.246 1.381 0.663 2.267 1.339 2.943 0.76 0.76 1.787 1.195 3.492 1.425 1.733 0.233 4.011 0.235 7.182 0.235s5.449-0.002 7.182-0.235c1.705-0.229 2.732-0.665 3.492-1.425 0.28-0.28 0.509-0.589 0.7-0.944 0.442-0.821 0.697-1.92 0.828-3.526s0.132-3.609 0.132-6.204c0-3.171-0.002-5.449-0.235-7.182-0.229-1.705-0.665-2.732-1.425-3.492s-1.787-1.195-3.492-1.425c-1.733-0.233-4.011-0.235-7.182-0.235s-5.449 0.002-7.182 0.235z"></path>
<path d="M27.476 25.529l-3.774-3.397c-1.386-1.247-3.45-1.372-4.976-0.299l-0.398 0.279c-1.060 0.745-2.503 0.62-3.419-0.296l-5.72-5.72c-1.142-1.142-2.973-1.203-4.188-0.139l-1.335 1.168c0 0.297 0.001 0.587 0.002 0.869 0.011 2.499 0.067 4.328 0.317 5.737 0.246 1.381 0.663 2.267 1.339 2.943 0.76 0.76 1.787 1.195 3.492 1.425 1.733 0.233 4.011 0.235 7.182 0.235s5.449-0.002 7.182-0.235c1.705-0.229 2.732-0.665 3.492-1.425 0.28-0.28 0.509-0.589 0.7-0.944 0.035-0.065 0.069-0.133 0.102-0.202z"></path>
</symbol>
<symbol id="icon-telegram-icon" viewBox="0 0 32 32">
<path d="M1.812 13.393l26.997-10.409c1.253-0.453 2.347 0.306 1.941 2.2l0.002-0.002-4.597 21.656c-0.341 1.535-1.253 1.909-2.529 1.185l-7-5.159-3.376 3.253c-0.373 0.373-0.688 0.688-1.412 0.688l0.497-7.124 12.973-11.72c0.565-0.497-0.126-0.777-0.87-0.282l-16.032 10.094-6.911-2.156c-1.5-0.476-1.533-1.5 0.317-2.224z"></path>
</symbol>
<symbol id="icon-viber-icon" viewBox="0 0 32 32">
<path d="M18.947 1.263h-5.895c-2.736 0-5.36 1.087-7.294 3.021s-3.021 4.558-3.021 7.294v4.421c-0.001 1.953 0.553 3.866 1.596 5.517s2.534 2.971 4.299 3.808v4.926c0.002 0.096 0.032 0.19 0.086 0.269s0.13 0.141 0.219 0.178c0.089 0.037 0.186 0.047 0.281 0.029s0.182-0.063 0.251-0.13l4.281-4.281h5.198c2.736 0 5.36-1.087 7.294-3.021s3.021-4.558 3.021-7.294v-4.421c0-2.736-1.087-5.36-3.021-7.294s-4.559-3.021-7.294-3.021zM22.808 20.598l-1.474 1.474c-1.57 1.536-5.666-0.217-9.277-3.905s-5.195-7.825-3.684-9.362l1.474-1.474c0.289-0.259 0.664-0.401 1.052-0.397s0.761 0.154 1.044 0.419l2.152 2.211c0.171 0.176 0.294 0.393 0.358 0.63s0.067 0.486 0.008 0.725c-0.059 0.238-0.178 0.458-0.345 0.638s-0.377 0.314-0.611 0.391c-0.346 0.106-0.638 0.341-0.815 0.657s-0.226 0.687-0.136 1.038c0.368 1.636 2.446 3.684 3.994 4.086 0.349 0.083 0.716 0.036 1.033-0.132s0.561-0.446 0.688-0.782c0.082-0.234 0.222-0.443 0.408-0.607s0.411-0.277 0.653-0.329c0.242-0.052 0.494-0.040 0.731 0.033s0.45 0.207 0.621 0.387l2.148 2.211c0.258 0.288 0.399 0.662 0.395 1.049s-0.153 0.758-0.417 1.040zM17.341 8.263c-0.147-0.001-0.293 0.008-0.438 0.026-0.064 0.007-0.129 0.001-0.191-0.017s-0.12-0.048-0.17-0.088c-0.050-0.040-0.092-0.090-0.123-0.147s-0.051-0.119-0.058-0.183c-0.007-0.064-0.001-0.129 0.017-0.191s0.048-0.12 0.088-0.17c0.040-0.050 0.090-0.092 0.147-0.123s0.119-0.051 0.183-0.058c0.181-0.021 0.363-0.031 0.545-0.029 1.304-0.001 2.555 0.516 3.478 1.437s1.443 2.171 1.445 3.474c0.001 0.182-0.009 0.364-0.030 0.545-0.007 0.064-0.027 0.126-0.058 0.183s-0.073 0.106-0.123 0.147c-0.050 0.040-0.108 0.070-0.17 0.088s-0.127 0.024-0.191 0.017c-0.064-0.007-0.126-0.027-0.183-0.058s-0.106-0.073-0.147-0.123-0.070-0.108-0.089-0.17c-0.018-0.062-0.024-0.127-0.017-0.191 0.016-0.146 0.025-0.292 0.026-0.438-0.002-1.044-0.418-2.044-1.157-2.781s-1.741-1.151-2.785-1.15zM20.288 12.194c-0.011 0.123-0.067 0.238-0.158 0.321s-0.21 0.13-0.334 0.13c-0.124 0-0.243-0.046-0.334-0.13s-0.147-0.198-0.158-0.321c0-0.521-0.207-1.020-0.575-1.389s-0.868-0.575-1.389-0.575c-0.068 0.006-0.137-0.002-0.202-0.024s-0.124-0.057-0.175-0.104c-0.050-0.046-0.091-0.102-0.118-0.165s-0.042-0.13-0.042-0.199c0-0.068 0.014-0.136 0.042-0.199s0.068-0.119 0.118-0.165c0.050-0.046 0.11-0.082 0.175-0.104s0.133-0.030 0.202-0.024c0.782 0 1.531 0.311 2.084 0.863s0.863 1.302 0.863 2.084zM24.035 13.79c-0.011 0.067-0.035 0.131-0.072 0.188s-0.085 0.106-0.141 0.144c-0.056 0.038-0.12 0.063-0.187 0.075s-0.135 0.010-0.201-0.006c-0.066-0.016-0.128-0.045-0.182-0.086s-0.099-0.092-0.133-0.151c-0.033-0.059-0.054-0.124-0.061-0.192s-0-0.136 0.020-0.2c0.106-0.445 0.16-0.902 0.158-1.359 0-1.563-0.621-3.063-1.727-4.168s-2.605-1.727-4.168-1.727c-0.151 0-0.306 0-0.457 0-0.064 0.005-0.129-0.003-0.19-0.023s-0.118-0.052-0.167-0.094c-0.099-0.085-0.16-0.206-0.17-0.336s0.032-0.258 0.117-0.357c0.085-0.099 0.206-0.16 0.336-0.17 0.177-0.015 0.354-0.022 0.531-0.022 1.825 0.003 3.575 0.73 4.864 2.022s2.014 3.042 2.014 4.868c0 0.537-0.062 1.072-0.184 1.595z"></path>
</symbol>
<symbol id="icon-arrow-icon" viewBox="0 0 50 32">
<path d="M25.881 30.172c-0.812 0-1.48-0.306-2.005-0.917l-20.052-21.388c-0.621-0.56-0.883-1.273-0.788-2.139 0-0.764 0.263-1.477 0.788-2.139 0.573-0.509 1.265-0.789 2.077-0.84s1.456 0.229 1.934 0.84l18.047 19.173 18.047-19.173c0.525-0.611 1.182-0.891 1.969-0.84s1.444 0.356 1.969 0.917c0.525 0.56 0.812 1.26 0.859 2.101s-0.215 1.54-0.788 2.101l-20.052 21.388c-0.477 0.611-1.146 0.917-2.005 0.917z"></path>
</symbol>
<symbol id="icon-arrow-left-icon" viewBox="0 0 30 32">
<path d="M12.066 27.628c-0.323 0-0.606-0.121-0.849-0.364l-10.247-10.247c-0.243-0.243-0.364-0.531-0.364-0.864s0.121-0.621 0.364-0.864l10.247-10.247c0.121-0.121 0.258-0.212 0.409-0.273s0.308-0.091 0.47-0.091c0.162 0 0.318 0.030 0.47 0.091s0.283 0.147 0.394 0.258c0.111 0.111 0.197 0.248 0.258 0.409 0.061 0.121 0.091 0.273 0.091 0.455s-0.030 0.333-0.091 0.455c-0.081 0.182-0.172 0.313-0.273 0.394l-9.398 9.428 9.398 9.398c0.162 0.162 0.268 0.364 0.318 0.606s0.030 0.48-0.061 0.712c-0.091 0.232-0.237 0.414-0.44 0.546s-0.435 0.197-0.697 0.197zM23.646 17.381h-21.827c-0.323 0-0.606-0.121-0.849-0.364s-0.364-0.531-0.364-0.864 0.116-0.616 0.349-0.849c0.232-0.232 0.52-0.349 0.864-0.349h21.827c0.344 0 0.632 0.116 0.864 0.349s0.349 0.515 0.349 0.849c0 0.333-0.121 0.621-0.364 0.864s-0.525 0.364-0.849 0.364z"></path>
</symbol>
<symbol id="icon-arrow-right-icon" viewBox="0 0 30 32">
<path d="M13.4 27.749c-0.263 0-0.495-0.066-0.697-0.197s-0.349-0.313-0.44-0.546c-0.091-0.232-0.111-0.47-0.061-0.712s0.157-0.445 0.318-0.606l9.398-9.428-9.398-9.398c-0.121-0.121-0.212-0.258-0.273-0.409s-0.091-0.308-0.091-0.47c0-0.162 0.030-0.313 0.091-0.455s0.152-0.273 0.273-0.394c0.121-0.121 0.258-0.212 0.409-0.273s0.293-0.091 0.424-0.091c0.131 0 0.298 0.040 0.5 0.121 0.141 0.061 0.273 0.152 0.394 0.273l10.247 10.247c0.243 0.243 0.364 0.531 0.364 0.864s-0.121 0.621-0.364 0.864l-10.247 10.247c-0.243 0.243-0.525 0.364-0.849 0.364zM23.646 17.472h-21.827c-0.344 0-0.632-0.116-0.864-0.349s-0.349-0.515-0.349-0.849c0-0.333 0.121-0.621 0.364-0.864s0.525-0.364 0.849-0.364h21.827c0.323 0 0.606 0.121 0.849 0.364s0.364 0.531 0.364 0.864c0 0.333-0.116 0.616-0.349 0.849s-0.52 0.349-0.864 0.349z"></path>
</symbol>
<symbol id="icon-comfortable-icon" viewBox="0 0 32 32">
<path d="M23.351 14.379c-0.062 0-0.123-0.008-0.183-0.024-0.376-0.1-0.602-0.491-0.502-0.867 0.168-0.631 0.164-1.296-0.010-1.925-0.169-0.61-0.491-1.168-0.939-1.616s-1.005-0.771-1.616-0.939c-0.629-0.174-1.294-0.178-1.925-0.010-0.376 0.1-0.767-0.126-0.867-0.502s0.125-0.766 0.502-0.867c0.874-0.233 1.795-0.227 2.667 0.013 0.846 0.234 1.62 0.681 2.241 1.303 0.622 0.622 1.071 1.398 1.304 2.246 0.239 0.87 0.245 1.789 0.012 2.661-0.083 0.31-0.363 0.526-0.684 0.526z"></path>
<path d="M26.777 15.297c-0.062 0-0.123-0.008-0.183-0.024-0.376-0.1-0.602-0.491-0.502-0.867 0.331-1.24 0.323-2.548-0.019-3.784-0.332-1.202-0.967-2.3-1.849-3.181-0.881-0.881-1.977-1.516-3.177-1.847-1.238-0.342-2.547-0.351-3.789-0.020-0.376 0.1-0.766-0.125-0.867-0.502s0.125-0.767 0.502-0.867c1.483-0.396 3.046-0.386 4.525 0.022 1.439 0.397 2.753 1.157 3.808 2.212s1.817 2.371 2.213 3.811c0.407 1.478 0.417 3.040 0.021 4.522-0.083 0.31-0.363 0.526-0.684 0.526z"></path>
<path d="M30.202 16.214c-0.062 0-0.123-0.008-0.183-0.024-0.376-0.1-0.602-0.491-0.502-0.867 0.453-1.698 0.492-3.479 0.089-5.191-0.463-1.968-1.478-3.741-2.906-5.169s-3.2-2.443-5.168-2.905c-1.713-0.403-3.493-0.364-5.192 0.089-0.376 0.1-0.766-0.126-0.867-0.502s0.125-0.767 0.502-0.867c1.934-0.516 3.96-0.557 5.909-0.094 2.215 0.526 4.211 1.67 5.818 3.278 1.6 1.599 2.739 3.584 3.268 5.786 0.47 1.959 0.432 3.995-0.085 5.941-0.082 0.31-0.364 0.526-0.684 0.526z"></path>
<path d="M4.568 1.113l5.557 5.557 0.788-0.788c0.435-0.435 0.435-1.142 0-1.576l-3.98-3.98c-0.209-0.209-0.489-0.325-0.788-0.325s-0.579 0.115-0.788 0.325l-0.788 0.788z"></path>
<path d="M0.679 5.002c-1.169 1.169-0.821 3.615 0.982 6.885 1.695 3.075 4.532 6.672 7.988 10.129s7.053 6.293 10.129 7.988c3.271 1.802 5.716 2.151 6.886 0.982l3.272-3.273-5.58-5.581c-0.835 0.647-1.813 0.93-2.862 0.93-2.761 0-6.016-1.963-8.472-4.418-3.388-3.388-5.838-8.299-3.488-11.334l-5.581-5.581-3.273 3.273z"></path>
<path d="M24.995 21.54l5.556 5.557 0.788-0.788c0.434-0.434 0.434-1.141-0-1.576l-3.981-3.981c-0.209-0.209-0.489-0.325-0.788-0.325s-0.579 0.115-0.788 0.325l-0.788 0.788z"></path>
</symbol>
<symbol id="icon-diploma-icon" viewBox="0 0 32 32">
<path d="M2.626 10.667v5.333c0 3.771 0 5.657 1.154 6.828 0.625 0.635 1.457 0.926 2.68 1.059 0.097-0.133 0.189-0.238 0.255-0.311 0.153-0.17 0.346-0.364 0.533-0.552l1.96-1.963 0.724-0.745c0.476-2.83 2.902-4.984 5.823-4.984s5.347 2.153 5.823 4.984l0.724 0.745 1.96 1.963c0.187 0.188 0.381 0.381 0.533 0.552 0.066 0.073 0.158 0.178 0.255 0.311 1.222-0.133 2.054-0.424 2.68-1.059 1.154-1.172 1.154-3.057 1.154-6.828v-5.333c0-3.771 0-5.657-1.154-6.828s-3.010-1.172-6.723-1.172h-10.503c-3.713 0-5.57 0-6.723 1.172s-1.154 3.057-1.154 6.828z"></path>
<path d="M9.19 11.667c-0.544 0-0.985 0.448-0.985 1s0.441 1 0.985 1h13.128c0.544 0 0.985-0.448 0.985-1s-0.441-1-0.985-1h-13.128z"></path>
<path d="M10.831 8c0-0.552 0.441-1 0.985-1h7.877c0.544 0 0.985 0.448 0.985 1s-0.441 1-0.985 1h-7.877c-0.544 0-0.985-0.448-0.985-1z"></path>
<path d="M11.817 21.224c-0.001 0.037-0.001 0.073-0.001 0.11 0 2.209 1.763 4 3.938 4s3.938-1.791 3.938-4c0-0.037-0-0.074-0.001-0.11-0.057-2.158-1.798-3.89-3.937-3.89-2.039 0-3.716 1.574-3.918 3.591-0.010 0.099-0.016 0.198-0.019 0.299z"></path>
<path d="M10.077 22.999l-1.418 1.421c-0.425 0.426-0.638 0.639-0.712 0.82-0.168 0.411-0.024 0.867 0.341 1.083 0.16 0.095 0.449 0.125 1.028 0.184 0.326 0.033 0.49 0.050 0.626 0.101 0.306 0.113 0.544 0.352 0.657 0.658 0.051 0.137 0.067 0.3 0.101 0.627 0.059 0.579 0.089 0.869 0.183 1.029 0.216 0.366 0.671 0.51 1.082 0.342 0.18-0.074 0.393-0.287 0.818-0.713l1.418-1.427c-1.986-0.548-3.556-2.121-4.125-4.125z"></path>
<path d="M17.306 27.124l1.418 1.427c0.425 0.426 0.638 0.639 0.818 0.713 0.411 0.168 0.866 0.024 1.082-0.342 0.095-0.16 0.124-0.45 0.183-1.029 0.033-0.327 0.050-0.49 0.101-0.627 0.113-0.306 0.351-0.545 0.657-0.658 0.137-0.051 0.3-0.067 0.626-0.101 0.578-0.059 0.867-0.089 1.028-0.184 0.365-0.216 0.509-0.672 0.341-1.083-0.074-0.18-0.286-0.393-0.712-0.82l-1.418-1.421c-0.569 2.004-2.139 3.577-4.125 4.125z"></path>
</symbol>
<symbol id="icon-experience-icon" viewBox="0 0 33 32">
<path d="M15.911 3.284c-0.251 0.435 0.063 0.98 0.566 0.98s0.817-0.544 0.565-0.98l-0.565-0.979-0.566 0.979z"></path>
<path d="M16.477 5.055c-1.112 0-1.806-1.203-1.25-2.166l0.908-1.573c0.152-0.263 0.533-0.263 0.685 0l0.908 1.573c0.556 0.963-0.139 2.166-1.25 2.166zM16.051 6.174c0.282 0.004 0.568 0.004 0.851 0 2.702-0.034 5.175 0.55 6.738 1.13v-1.508c0-3.196-2.6-5.796-5.796-5.796h-2.734c-3.196 0-5.796 2.6-5.796 5.796v1.507c1.564-0.58 4.036-1.164 6.737-1.13z"></path>
<path d="M16.040 6.964c-2.68-0.034-5.102 0.556-6.565 1.119h14.001c-1.463-0.563-3.886-1.154-6.565-1.119-0.289 0.004-0.582 0.004-0.871 0z"></path>
<path d="M22.679 8.874h-12.405v1.635c0 3.042 1.906 5.822 4.743 6.919 0.942 0.364 1.977 0.364 2.916 0l0.014-0.005c2.831-1.1 4.731-3.877 4.731-6.914l0-1.635z"></path>
<path d="M20.027 17.195c-0.555 0.395-1.16 0.722-1.807 0.972-0.58 0.218-1.133 0.326-1.743 0.326-0.591 0-1.181-0.109-1.744-0.326-0.647-0.25-1.253-0.577-1.808-0.972v1.389l3.551 2.37 3.551-2.371v-1.388z"></path>
<path d="M26.654 28.169c0 0.768-0.624 1.392-1.391 1.392s-1.392-0.624-1.392-1.392v-0.435h-14.79v0.435c0 0.768-0.624 1.392-1.392 1.392s-1.391-0.624-1.391-1.392v-0.436h-0.619c-0.446 0-0.808 0.363-0.808 0.808v3.192h23.211v-3.192c0-0.446-0.363-0.808-0.808-0.808l-0.619-0v0.435z"></path>
<path d="M27.273 26.943c0.882 0 1.599 0.717 1.599 1.599v3.192h3.531c0.303 0 0.549-0.246 0.549-0.549v-3.242c0-2.612-1.658-4.945-4.126-5.805l-2.172-0.756v5.561l0.619-0z"></path>
<path d="M25.863 28.169v-7.062l-1.202-0.418v6.65l-0 0.83c0 0.331 0.27 0.601 0.601 0.601s0.6-0.27 0.6-0.601z"></path>
<path d="M19.572 22.629l3.788-2.393-2.882-1.003-3.289 2.196 1.788 1.193c0.18 0.12 0.414 0.123 0.596 0.007z"></path>
<path d="M13.975 22.623l1.789-1.194-3.29-2.196-2.883 1.004 3.788 2.393c0.183 0.116 0.417 0.113 0.596-0.007z"></path>
<path d="M8.29 28.169v-7.48l-1.202 0.418v7.062c0 0.331 0.269 0.601 0.6 0.601s0.601-0.27 0.601-0.601z"></path>
<path d="M6.298 26.943v-5.56l-2.172 0.756c-2.468 0.859-4.126 3.192-4.126 5.805v3.242c0 0.303 0.247 0.549 0.549 0.549h3.53v-3.192c0-0.882 0.717-1.599 1.599-1.599l0.619-0z"></path>
<path d="M9.081 20.849v6.094h7v-4.775l-1.666 1.112c-0.44 0.294-1.012 0.3-1.458 0.018l-3.875-2.449z"></path>
<path d="M16.871 22.168v4.775h7v-6.095l-3.876 2.449c-0.447 0.282-1.018 0.276-1.458-0.018l-1.665-1.112z"></path>
</symbol>
<symbol id="icon-fast-icon" viewBox="0 0 29 32">
<path d="M14.311 26.091c-0.47 0.689-0.772 1.322-0.902 1.887-0.162 0.703-0.033 1.268 0.355 1.55 0.298 0.216 0.712 0.234 1.029 0.044 0.383-0.229 0.554-0.718 0.469-1.34-0.085-0.614-0.411-1.347-0.95-2.141z"></path>
<path d="M13.491 21.692c-0.839 0.921-0.839 1.936-0.84 3.339-0.001 0.277-0.001 0.564-0.008 0.865-0.004 0.151-0.085 0.289-0.215 0.366s-0.29 0.080-0.424 0.010c-0.463-0.244-0.855-0.683-1.153-1.109-0.135 1.766 0.408 3.176 1.56 3.962 0.048 0.033 0.096 0.064 0.145 0.094-0.118-0.418-0.119-0.905 0.002-1.435 0.188-0.815 0.661-1.724 1.406-2.7 0.083-0.108 0.21-0.171 0.346-0.171s0.264 0.063 0.346 0.171c0.85 1.113 1.343 2.133 1.467 3.030 0.055 0.403 0.034 0.775-0.058 1.104 0.049-0.030 0.097-0.061 0.144-0.093 1.153-0.786 1.696-2.195 1.561-3.962-0.298 0.426-0.69 0.864-1.154 1.109-0.133 0.070-0.293 0.066-0.424-0.010s-0.211-0.215-0.215-0.366c-0.007-0.301-0.007-0.588-0.007-0.865-0.002-1.404-0.002-2.418-0.841-3.34-0.264-0.29-0.57-0.658-0.82-1.047-0.25 0.388-0.557 0.757-0.821 1.047z"></path>
<path d="M14.312 18.141c-3.726 0-6.758 3.032-6.758 6.758s3.032 6.758 6.758 6.758c3.726-0 6.757-3.031 6.757-6.758s-3.031-6.758-6.757-6.758zM11.921 29.844c-1.717-1.171-2.347-3.389-1.731-6.085 0.042-0.184 0.197-0.32 0.385-0.337s0.365 0.089 0.439 0.262c0.11 0.255 0.397 0.811 0.765 1.259 0.002-1.441 0.023-2.691 1.067-3.838 0.551-0.605 0.932-1.177 1.047-1.568 0.054-0.186 0.225-0.314 0.418-0.314s0.364 0.128 0.418 0.314c0.113 0.391 0.495 0.963 1.046 1.568 1.044 1.147 1.066 2.397 1.068 3.838 0.368-0.448 0.654-1.004 0.765-1.259 0.075-0.173 0.252-0.279 0.439-0.262s0.343 0.153 0.386 0.337c0.616 2.696-0.015 4.914-1.732 6.085-0.715 0.488-1.553 0.731-2.39 0.731s-1.676-0.243-2.391-0.731z"></path>
<path d="M7.009 14.312c0 0.241-0.195 0.436-0.436 0.435h-3.518c0.064 1.713 0.508 3.351 1.283 4.82l1.338-0.772c0.208-0.12 0.474-0.049 0.595 0.159s0.048 0.475-0.16 0.595l-1.337 0.772c0.591 0.935 1.325 1.787 2.188 2.528 0.898-3.214 3.853-5.578 7.349-5.578s6.451 2.365 7.349 5.579c0.863-0.741 1.597-1.593 2.188-2.528l-1.337-0.772c-0.209-0.12-0.28-0.387-0.16-0.595s0.386-0.28 0.595-0.159l1.338 0.772c0.775-1.468 1.218-3.107 1.283-4.819h-3.517c-0.24 0-0.436-0.195-0.436-0.435s0.195-0.436 0.436-0.436l3.516-0c-0.066-1.733-0.526-3.366-1.291-4.814l-1.328 0.767c-0.069 0.040-0.144 0.058-0.218 0.058-0.151 0-0.297-0.078-0.378-0.218-0.12-0.208-0.049-0.475 0.16-0.595l1.327-0.766c-0.898-1.42-2.104-2.626-3.523-3.524l-0.767 1.327c-0.080 0.14-0.227 0.218-0.377 0.218-0.074 0-0.149-0.019-0.217-0.058-0.209-0.12-0.28-0.387-0.16-0.595l0.767-1.329c-1.448-0.766-3.081-1.225-4.814-1.292l0 3.516c0 0.241-0.195 0.436-0.436 0.436s-0.436-0.195-0.436-0.436l0-3.516c-1.733 0.066-3.367 0.526-4.814 1.292l0.767 1.328c0.12 0.208 0.048 0.475-0.16 0.595-0.069 0.040-0.144 0.058-0.218 0.058-0.15 0-0.297-0.078-0.377-0.218l-0.766-1.327c-1.42 0.898-2.626 2.104-3.524 3.523l1.327 0.766c0.208 0.12 0.28 0.387 0.16 0.595-0.081 0.14-0.228 0.218-0.378 0.218-0.073 0-0.149-0.019-0.217-0.058l-1.329-0.767c-0.766 1.448-1.226 3.081-1.292 4.814l3.517-0c0.24 0 0.436 0.195 0.436 0.436zM18.165 14.747h-3.853c-0.156 0-0.3-0.083-0.377-0.218l-3.628-6.283c-0.12-0.208-0.048-0.475 0.16-0.595s0.475-0.049 0.595 0.16l3.502 6.065h3.602c0.241 0 0.436 0.195 0.436 0.436s-0.195 0.436-0.436 0.435z"></path>
<path d="M0 14.312c0 5.036 2.603 9.628 6.858 12.221-0.115-0.526-0.176-1.073-0.176-1.633 0-0.369 0.026-0.733 0.077-1.088-2.917-2.319-4.584-5.766-4.584-9.499 0-2.19 0.583-4.246 1.603-6.021 0.007-0.016 0.015-0.032 0.023-0.047s0.018-0.030 0.029-0.043c1.056-1.803 2.563-3.311 4.367-4.368 0.015-0.011 0.030-0.022 0.047-0.031 0.014-0.008 0.029-0.016 0.044-0.022 1.776-1.020 3.833-1.604 6.024-1.604l0.012 0c2.185 0.002 4.237 0.585 6.009 1.602 0.016 0.007 0.032 0.015 0.047 0.024s0.030 0.018 0.044 0.029c1.804 1.056 3.313 2.565 4.369 4.369 0.011 0.014 0.020 0.029 0.029 0.044 0.008 0.013 0.015 0.027 0.021 0.041 1.021 1.777 1.605 3.835 1.605 6.027 0 3.734-1.667 7.181-4.584 9.499 0.051 0.356 0.077 0.719 0.077 1.088 0 0.56-0.061 1.107-0.176 1.633 4.256-2.593 6.858-7.184 6.858-12.221 0-7.891-6.42-14.311-14.311-14.311s-14.312 6.42-14.312 14.311z"></path>
</symbol>
<symbol id="icon-free-icon" viewBox="0 0 32 32">
<path d="M13.189 24.139c1.021-0.952 1.179-2.443 0.351-3.331s-2.326-0.835-3.347 0.117c-1.021 0.952-1.179 2.443-0.351 3.331s2.326 0.835 3.347-0.117z"></path>
<path d="M26.703 24.14c1.021-0.952 1.179-2.443 0.351-3.331s-2.326-0.835-3.347 0.117-1.179 2.443-0.351 3.331c0.827 0.887 2.326 0.835 3.347-0.117z"></path>
<path d="M2.473 12.487c0-0.589-0.478-1.067-1.067-1.067s-1.067 0.478-1.067 1.067c0 0.589 0.478 1.067 1.067 1.067s1.067-0.478 1.067-1.067z"></path>
<path d="M21.655 22.309c0.379-1.875 2.151-3.365 4.054-3.365 1.833 0 3.154 1.382 3.118 3.159 1.983 0.052 2.534-2.559 2.534-2.559 0.167-0.73 0.416-2.153 0.625-3.55 0.068-0.431 0.016-0.873-0.152-1.276-0.518-1.21-1.145-2.37-1.871-3.467-0.688-1.026-1.841-1.633-3.157-1.655-0.785-0.012-1.556-0.020-2.137-0.020l-0.005-0.005c-0.075-1.255-0.99-2.216-2.274-2.331-0.836-0.074-4.146-0.129-5.734-0.129-0.631 0-1.537 0.009-2.453 0.024v-0.004h-11.024c-0.14-0-0.279 0.027-0.409 0.081s-0.247 0.132-0.346 0.231c-0.099 0.099-0.178 0.217-0.231 0.346s-0.081 0.268-0.081 0.409v0.005c0 0.282 0.112 0.552 0.311 0.751s0.47 0.311 0.751 0.311h2.221c0.267 0.020 0.517 0.14 0.7 0.336s0.284 0.454 0.284 0.723v0.006c0 0.14-0.027 0.279-0.080 0.409s-0.132 0.248-0.231 0.347c-0.099 0.099-0.217 0.178-0.346 0.232s-0.269 0.082-0.409 0.082h-1.139c-0.283 0-0.554 0.112-0.754 0.313s-0.312 0.471-0.312 0.754c-0 0.14 0.027 0.279 0.081 0.408s0.132 0.247 0.231 0.346c0.099 0.099 0.217 0.178 0.346 0.231s0.268 0.081 0.408 0.081h1.139c0.283 0 0.555 0.112 0.755 0.313s0.313 0.472 0.313 0.755c0 0.283-0.112 0.555-0.313 0.755s-0.472 0.313-0.755 0.313h-4.26c-0.283 0-0.554 0.112-0.755 0.312s-0.313 0.471-0.313 0.754c0 0.283 0.112 0.555 0.313 0.755s0.472 0.313 0.755 0.313h4.26c0.283 0 0.555 0.112 0.755 0.313s0.313 0.472 0.313 0.755c-0 0.283-0.113 0.554-0.313 0.754s-0.471 0.312-0.754 0.312h-1.317c-0.283 0-0.554 0.112-0.754 0.313s-0.312 0.471-0.312 0.754c0 0.283 0.112 0.554 0.312 0.755s0.471 0.313 0.754 0.313l4.204-0.003 0.349-0.871c0.716-1.32 2.139-2.255 3.647-2.255 1.904 0 3.257 1.491 3.108 3.367h6.351zM11.067 11.897h-1.433c-0.001 0-0.003 0.001-0.004 0.002s-0.002 0.002-0.002 0.003l-0.132 0.938c-0 0.001-0 0.002-0 0.002s0.001 0.001 0.001 0.002 0.001 0.001 0.002 0.001 0.002 0.001 0.002 0.001h1.066c0.052-0.002 0.104 0.009 0.152 0.030s0.090 0.053 0.125 0.092c0.034 0.040 0.059 0.087 0.073 0.137s0.016 0.104 0.007 0.155c-0.018 0.113-0.075 0.217-0.162 0.292s-0.196 0.119-0.311 0.122h-1.067c-0.001-0-0.003 0-0.004 0.001s-0.002 0.002-0.002 0.003l-0.191 1.362c-0.018 0.113-0.075 0.217-0.162 0.292s-0.196 0.119-0.311 0.122c-0.052 0.002-0.104-0.009-0.152-0.030s-0.090-0.053-0.124-0.092c-0.034-0.040-0.059-0.087-0.072-0.137s-0.016-0.104-0.006-0.155l0.496-3.533c0.020-0.12 0.080-0.229 0.171-0.309s0.207-0.125 0.329-0.129h1.827c0.052-0.002 0.104 0.009 0.152 0.030s0.090 0.053 0.124 0.092c0.034 0.040 0.059 0.087 0.073 0.137s0.016 0.103 0.006 0.155c-0.018 0.113-0.076 0.215-0.162 0.291s-0.195 0.118-0.31 0.121zM14.896 11.352c0.149 0.132 0.254 0.307 0.3 0.5 0.052 0.219 0.060 0.446 0.025 0.669-0.043 0.346-0.185 0.672-0.408 0.941-0.136 0.161-0.309 0.287-0.504 0.367-0.001 0.001-0.001 0.002-0.001 0.003s0.001 0.002 0.001 0.003l0.355 1.024c0.096 0.275-0.15 0.596-0.456 0.596h-0.020c-0.074 0.002-0.147-0.019-0.208-0.061s-0.107-0.102-0.132-0.172l-0.429-1.25c-0.001-0.001-0.001-0.002-0.002-0.002s-0.002-0.001-0.003-0.001h-0.912c-0.001 0-0.002 0.001-0.004 0.001s-0.002 0.002-0.002 0.003l-0.15 1.068c-0.018 0.113-0.075 0.217-0.162 0.292s-0.196 0.119-0.311 0.122c-0.052 0.002-0.104-0.009-0.152-0.030s-0.090-0.053-0.124-0.092c-0.034-0.040-0.059-0.087-0.073-0.137s-0.016-0.103-0.006-0.155l0.496-3.533c0.020-0.12 0.080-0.229 0.171-0.308s0.207-0.125 0.329-0.129h1.412c0 0 0.62-0.019 0.971 0.282zM18.783 11.456c-0.017 0.106-0.070 0.202-0.151 0.273s-0.183 0.111-0.29 0.114h-1.643c-0.001 0-0.003 0.001-0.003 0.001s-0.002 0.002-0.002 0.003l-0.131 0.928c-0 0.001-0 0.002-0 0.002s0 0.001 0.001 0.002 0.001 0.001 0.002 0.001 0.001 0.001 0.002 0.001h1.276c0.049-0.001 0.097 0.008 0.142 0.028s0.084 0.049 0.116 0.086c0.032 0.037 0.055 0.081 0.068 0.128s0.015 0.097 0.006 0.145c-0.017 0.106-0.070 0.202-0.151 0.273s-0.183 0.111-0.29 0.114h-1.277c-0.001 0-0.003 0.001-0.003 0.001s-0.002 0.002-0.002 0.003l-0.157 1.116c0 0.002 0.001 0.003 0.002 0.004s0.003 0.002 0.004 0.002h1.642c0.049-0.001 0.097 0.008 0.142 0.028s0.084 0.049 0.116 0.086c0.032 0.037 0.055 0.081 0.068 0.128s0.015 0.097 0.006 0.145c-0.017 0.106-0.070 0.202-0.151 0.273s-0.183 0.111-0.29 0.114h-2.037c-0.055 0.001-0.109-0.011-0.16-0.033s-0.095-0.056-0.13-0.098c-0.036-0.042-0.062-0.091-0.077-0.144s-0.018-0.109-0.008-0.163l0.493-3.508c0.020-0.12 0.080-0.229 0.172-0.308s0.207-0.125 0.328-0.129h2.037c0.048-0.001 0.096 0.008 0.141 0.028s0.084 0.049 0.115 0.085c0.032 0.037 0.055 0.080 0.068 0.126s0.016 0.096 0.007 0.143zM22.196 11.456c-0.017 0.106-0.070 0.202-0.151 0.273s-0.183 0.111-0.29 0.114h-1.643c-0.001 0-0.003 0.001-0.003 0.001s-0.002 0.002-0.002 0.003l-0.13 0.928c-0 0.001-0 0.002-0 0.002s0 0.001 0.001 0.002 0.001 0.001 0.002 0.001 0.001 0.001 0.002 0.001h1.276c0.049-0.001 0.097 0.008 0.142 0.028s0.084 0.049 0.116 0.086c0.032 0.037 0.055 0.081 0.068 0.128s0.015 0.097 0.006 0.145c-0.017 0.106-0.070 0.202-0.151 0.273s-0.183 0.111-0.29 0.114h-1.277c-0.001 0-0.003 0.001-0.003 0.001s-0.002 0.002-0.002 0.003l-0.157 1.116c0 0.002 0.001 0.003 0.002 0.004s0.002 0.002 0.004 0.002h1.642c0.049-0.001 0.097 0.008 0.142 0.028s0.084 0.049 0.116 0.086c0.032 0.037 0.055 0.081 0.068 0.128s0.015 0.097 0.006 0.145c-0.017 0.106-0.070 0.202-0.151 0.273s-0.183 0.111-0.29 0.114h-2.038c-0.055 0.001-0.109-0.011-0.16-0.033s-0.095-0.056-0.13-0.098c-0.036-0.042-0.062-0.091-0.077-0.144s-0.018-0.109-0.008-0.163l0.493-3.508c0.020-0.12 0.080-0.229 0.172-0.308s0.207-0.125 0.329-0.129h2.037c0.048-0.001 0.096 0.008 0.141 0.028s0.084 0.049 0.115 0.085c0.032 0.037 0.055 0.080 0.068 0.126s0.016 0.096 0.007 0.143zM24.571 11.055c0.558 0 1.281 0.008 2.006 0.019 0.879 0.014 1.648 0.418 2.109 1.107 0.493 0.743 0.936 1.517 1.326 2.319 0.206 0.42-0.173 0.967-0.67 0.967h-5.328l0.558-4.412z"></path>
<path d="M13.591 13.195h-0.988l0.188-1.352h0.987c0 0 0.724-0.047 0.606 0.676 0.003 0-0.080 0.676-0.793 0.676z"></path>
</symbol>
<symbol id="icon-global-icon" viewBox="0 0 32 32">
<path d="M2.704 15c0.511-6.897 6.269-12.333 13.296-12.333-1.108 0-2.094 0.486-2.906 1.228-0.807 0.739-1.49 1.77-2.041 2.989-0.555 1.226-0.986 2.661-1.278 4.217-0.234 1.248-0.376 2.563-0.424 3.899h-6.647zM2.704 17h6.647c0.047 1.335 0.19 2.651 0.424 3.899 0.292 1.557 0.723 2.991 1.278 4.217 0.552 1.219 1.234 2.251 2.041 2.989 0.811 0.743 1.798 1.228 2.906 1.228-7.027 0-12.785-5.437-13.296-12.333z"></path>
<path d="M16 2.667c1.108 0 2.094 0.486 2.906 1.228 0.807 0.739 1.49 1.77 2.041 2.989 0.555 1.226 0.986 2.661 1.278 4.217 0.234 1.248 0.376 2.563 0.424 3.899h6.647c-0.511-6.897-6.269-12.333-13.296-12.333z"></path>
<path d="M22.225 20.899c-0.292 1.557-0.723 2.991-1.278 4.217-0.552 1.219-1.234 2.251-2.041 2.989-0.811 0.743-1.798 1.228-2.906 1.228 7.027 0 12.785-5.437 13.296-12.333h-6.647c-0.047 1.335-0.19 2.651-0.424 3.899z"></path>
<path d="M16 4.527c-0.367 0-0.84 0.156-1.391 0.66-0.555 0.508-1.11 1.304-1.601 2.388-0.488 1.077-0.883 2.377-1.156 3.83-0.215 1.144-0.348 2.357-0.394 3.594h9.085c-0.047-1.237-0.18-2.45-0.394-3.594-0.272-1.453-0.668-2.753-1.156-3.83-0.491-1.084-1.046-1.88-1.601-2.388-0.551-0.504-1.025-0.66-1.391-0.66z"></path>
<path d="M11.852 20.595c0.272 1.453 0.668 2.753 1.156 3.83 0.491 1.084 1.046 1.88 1.601 2.388 0.551 0.504 1.025 0.66 1.391 0.66s0.84-0.156 1.391-0.66c0.555-0.508 1.11-1.304 1.601-2.388 0.487-1.077 0.883-2.377 1.156-3.83 0.215-1.144 0.348-2.357 0.394-3.594h-9.085c0.047 1.237 0.18 2.45 0.394 3.594z"></path>
</symbol>
</defs>
</svg>
