<svg width="46" height="44" viewBox="0 0 46 44" fill="none" xmlns="http://www.w3.org/2000/svg">
<path fill-rule="evenodd" clip-rule="evenodd" d="M21.4781 0.953187C22.4057 0.214821 23.6956 0.214822 24.6232 0.953196L44.7815 17.0004C46.7392 18.5589 45.6767 21.8052 43.209 21.8052H40.4854V24.8194C40.4854 34.9924 32.5351 43.2393 22.7278 43.2393C12.9205 43.2393 4.9702 34.9924 4.9702 24.8194V21.8052H2.89241C0.424644 21.8052 -0.637822 18.5589 1.31988 17.0004L21.4781 0.953187ZM15.3019 26.4156C15.3019 21.4513 22.7278 12.4278 22.7278 12.4278C22.7278 12.4278 30.1537 21.4513 30.1537 26.4156C30.1537 30.5297 26.8308 33.8618 22.7278 33.8618C18.6248 33.8618 15.3019 30.5297 15.3019 26.4156Z" fill="white"/>
</svg>
