<svg width="60" height="60" viewBox="0 0 60 60" fill="none" xmlns="http://www.w3.org/2000/svg">
<path d="M45 20.0005C45 22.7619 42.7614 25.0005 40 25.0005C37.2386 25.0005 35 22.7619 35 20.0005C35 17.2391 37.2386 15.0005 40 15.0005C42.7614 15.0005 45 17.2391 45 20.0005Z" fill="white"/>
<path fill-rule="evenodd" clip-rule="evenodd" d="M29.8566 3.12549H30.1434C35.9144 3.12546 40.437 3.12543 43.9657 3.59985C47.5776 4.08545 50.4276 5.0988 52.6647 7.33583C54.9017 9.57285 55.915 12.4229 56.4006 16.0348C56.8751 19.5635 56.875 24.0861 56.875 29.8571V30.0778C56.875 34.8497 56.875 38.7562 56.6159 41.9368C56.3554 45.1331 55.8217 47.804 54.6272 50.0223C54.1003 51.0007 53.4529 51.8769 52.6647 52.6651C50.4276 54.9022 47.5776 55.9155 43.9657 56.4011C40.437 56.8755 35.9144 56.8755 30.1434 56.8755H29.8566C24.0856 56.8755 19.563 56.8755 16.0343 56.4011C12.4224 55.9155 9.57237 54.9022 7.33534 52.6651C5.35214 50.6819 4.328 48.2136 3.78338 45.1516C3.24837 42.1436 3.15051 38.4013 3.13017 33.7542C3.125 32.5722 3.125 31.3219 3.125 30.003L3.125 29.857C3.12497 24.0861 3.12494 19.5635 3.59937 16.0348C4.08497 12.4229 5.09832 9.57285 7.33534 7.33583C9.57237 5.0988 12.4224 4.08545 16.0343 3.59985C19.563 3.12543 24.0856 3.12546 29.8566 3.12549ZM16.5339 7.31642C13.3379 7.74611 11.4111 8.56334 9.98699 9.98748C8.56285 11.4116 7.74562 13.3384 7.31593 16.5344C6.87898 19.7844 6.875 24.0549 6.875 30.0005C6.875 31.3222 6.875 32.5647 6.88014 33.7378C6.90064 38.4231 7.00535 41.852 7.47543 44.4949C7.9359 47.0838 8.71934 48.7458 9.98699 50.0135C11.4111 51.4376 13.3379 52.2549 16.5339 52.6846C19.7839 53.1215 24.0544 53.1255 30 53.1255C35.9456 53.1255 40.2161 53.1215 43.4661 52.6846C46.6621 52.2549 48.5889 51.4376 50.013 50.0135C50.5378 49.4887 50.968 48.9083 51.3255 48.2444C52.1546 46.7046 52.6328 44.645 52.8782 41.6323C53.1236 38.6211 53.125 34.8652 53.125 30.0005C53.125 24.0549 53.121 19.7844 52.6841 16.5344C52.2544 13.3384 51.4371 11.4116 50.013 9.98748C48.5889 8.56334 46.6621 7.74611 43.4661 7.31642C40.2161 6.87947 35.9456 6.87549 30 6.87549C24.0544 6.87549 19.7839 6.87947 16.5339 7.31642Z" fill="white"/>
<path opacity="0.4" d="M51.5171 47.8664L44.441 41.4979C41.8422 39.1589 37.9719 38.926 35.1114 40.9364L34.3659 41.4603C32.378 42.8574 29.6735 42.6231 27.9554 40.905L17.2311 30.1807C15.0905 28.0402 11.657 27.9259 9.37882 29.9193L6.87598 32.1092C6.87668 32.6668 6.87795 33.2093 6.88026 33.7378C6.90076 38.4231 7.00547 41.852 7.47555 44.4949C7.93602 47.0838 8.71946 48.7458 9.98711 50.0135C11.4113 51.4376 13.3381 52.2549 16.5341 52.6846C19.784 53.1215 24.0546 53.1255 30.0001 53.1255C35.9457 53.1255 40.2162 53.1215 43.4662 52.6846C46.6622 52.2549 48.589 51.4376 50.0131 50.0135C50.5379 49.4887 50.9681 48.9083 51.3256 48.2444C51.3916 48.1217 51.4555 47.9958 51.5171 47.8664Z" fill="white"/>
</svg>
